<svg width="47" height="47" viewBox="0 0 47 47" fill="none" xmlns="http://www.w3.org/2000/svg">
<g clip-path="url(#clip0_99_112)">
<path d="M23.5 5.23753C20.6066 2.74947 16.4118 2.37935 12.5931 2.76122C8.14569 3.21066 3.65719 4.73522 0.860688 6.00716C0.604094 6.12386 0.386502 6.31193 0.233887 6.54893C0.0812709 6.78593 7.80536e-05 7.06184 0 7.34372L0 39.6562C6.80383e-05 39.902 0.0617966 40.1438 0.179531 40.3595C0.297266 40.5752 0.467244 40.7579 0.673894 40.8909C0.880545 41.0239 1.11726 41.1029 1.36236 41.1207C1.60746 41.1385 1.85311 41.0945 2.07681 40.9928C4.66769 39.8178 8.84188 38.4048 12.8868 37.9965C17.0258 37.5794 20.4949 38.2521 22.3544 40.5727C22.492 40.7443 22.6664 40.8827 22.8647 40.9778C23.063 41.073 23.2801 41.1224 23.5 41.1224C23.7199 41.1224 23.937 41.073 24.1353 40.9778C24.3336 40.8827 24.508 40.7443 24.6456 40.5727C26.5051 38.2521 29.9743 37.5794 34.1103 37.9965C38.1581 38.4048 42.3353 39.8178 44.9232 40.9928C45.1469 41.0945 45.3925 41.1385 45.6376 41.1207C45.8827 41.1029 46.1195 41.0239 46.3261 40.8909C46.5328 40.7579 46.7027 40.5752 46.8205 40.3595C46.9382 40.1438 46.9999 39.902 47 39.6562V7.34372C46.9999 7.06184 46.9187 6.78593 46.7661 6.54893C46.6135 6.31193 46.3959 6.12386 46.1393 6.00716C43.3428 4.73522 38.8543 3.21066 34.4069 2.76122C30.5882 2.37641 26.3934 2.74947 23.5 5.23753Z" fill="#1A2250"/>
</g>
<defs>
<clipPath id="clip0_99_112">
<rect width="47" height="47" fill="white"/>
</clipPath>
</defs>
</svg>
