<svg width="49" height="55" viewBox="0 0 49 55" fill="none" xmlns="http://www.w3.org/2000/svg">
<path d="M47.2188 6.34375L37.4688 4.09375C36.4375 3.8125 35.3125 4.375 34.8438 5.40625L30.3438 15.9062C29.9688 16.8438 30.25 17.875 31 18.5312L36.7188 23.2188C33.3438 30.3438 27.4375 36.3438 20.125 39.8125L15.4375 34.0938C14.7812 33.3438 13.75 33.0625 12.8125 33.4375L2.3125 37.9375C1.28125 38.4062 0.8125 39.5312 1 40.5625L3.25 50.3125C3.53125 51.3438 4.375 52 5.5 52C29.5 52 49 32.5938 49 8.5C49 7.46875 48.25 6.625 47.2188 6.34375Z" fill="#1A2250"/>
</svg>
