<svg width="47" height="47" viewBox="0 0 47 47" fill="none" xmlns="http://www.w3.org/2000/svg">
<g clip-path="url(#clip0_63_782)">
<g clip-path="url(#clip1_63_782)">
<path d="M38.2249 2.29218L38.6468 1.86256C38.9644 1.53938 39.3414 1.28307 39.7563 1.10824C40.1712 0.933408 40.6158 0.843494 41.0648 0.843628C41.5138 0.843762 41.9584 0.933941 42.3732 1.10902C42.788 1.28409 43.1648 1.54064 43.4822 1.864C43.7996 2.18737 44.0514 2.57122 44.2231 2.99364C44.3948 3.41606 44.4831 3.86879 44.483 4.32596C44.4828 4.78313 44.3943 5.2358 44.2223 5.65812C44.0504 6.08044 43.7984 6.46414 43.4808 6.78732L43.0589 7.21405C43.7807 8.03829 44.1655 9.11243 44.1344 10.2163C44.1033 11.3201 43.6588 12.3701 42.8918 13.1509L13.7463 42.8292C13.5641 43.0137 13.336 43.1443 13.0865 43.2069L1.75904 46.0902C1.52199 46.1503 1.2737 46.147 1.03831 46.0805C0.802919 46.0139 0.58843 45.8866 0.415693 45.7107C0.242956 45.5348 0.117848 45.3164 0.0525298 45.0767C-0.0127882 44.8371 -0.0160941 44.5843 0.0429335 44.3429L2.87479 32.8095C2.93675 32.5565 3.06496 32.3253 3.24577 32.1406L30.5505 4.33935C30.2775 4.14366 29.9452 4.05254 29.6126 4.08208C29.2799 4.11163 28.9682 4.25994 28.7325 4.50082L19.41 13.9957C19.2784 14.1297 19.1221 14.2361 18.9501 14.3086C18.7781 14.3811 18.5937 14.4185 18.4075 14.4185C18.2214 14.4185 18.037 14.3811 17.865 14.3086C17.693 14.2361 17.5367 14.1297 17.4051 13.9957C17.2734 13.8616 17.169 13.7025 17.0977 13.5274C17.0265 13.3522 16.9898 13.1645 16.9898 12.975C16.9898 12.7854 17.0265 12.5977 17.0977 12.4226C17.169 12.2474 17.2734 12.0883 17.4051 11.9543L26.7332 2.4623C27.5006 1.68095 28.5325 1.22828 29.6173 1.19718C30.7022 1.16609 31.7575 1.55892 32.5668 2.29506C33.3449 1.58702 34.3518 1.19539 35.3953 1.19486C36.4389 1.19432 37.4461 1.58493 38.2249 2.29218Z" fill="#1A2250"/>
</g>
</g>
<defs>
<clipPath id="clip0_63_782">
<rect width="46.1336" height="46.1336" fill="white"/>
</clipPath>
<clipPath id="clip1_63_782">
<rect width="45.3097" height="46.1336" fill="white"/>
</clipPath>
</defs>
</svg>
