<svg width="48" height="47" viewBox="0 0 48 47" fill="none" xmlns="http://www.w3.org/2000/svg">
<g clip-path="url(#clip0_63_775)">
<path d="M17.6531 28.8335C17.6531 30.7567 17.4089 32.1983 16.9176 33.1585H14.711C14.3208 33.1585 13.9466 33.3104 13.6707 33.5807C13.3948 33.8511 13.2399 34.2178 13.2399 34.6002C13.2399 34.9825 13.3948 35.3492 13.6707 35.6196C13.9466 35.89 14.3208 36.0418 14.711 36.0418H32.3641C32.7543 36.0418 33.1284 35.89 33.4043 35.6196C33.6802 35.3492 33.8352 34.9825 33.8352 34.6002C33.8352 34.2178 33.6802 33.8511 33.4043 33.5807C33.1284 33.3104 32.7543 33.1585 32.3641 33.1585H30.1575C29.6661 32.1983 29.4219 30.7567 29.4219 28.8335H41.1907C47.0751 28.8335 47.0751 23.0668 47.0751 23.0668V5.76669C47.0751 0 41.1907 0 41.1907 0H5.88438C0 0 0 5.76669 0 5.76669V23.0668C0 28.8335 5.88438 28.8335 5.88438 28.8335H17.6531Z" fill="#1A2250"/>
</g>
<defs>
<clipPath id="clip0_63_775">
<rect width="47.0751" height="46.1336" fill="white"/>
</clipPath>
</defs>
</svg>
