<svg width="29" height="27" viewBox="0 0 29 27" fill="none" xmlns="http://www.w3.org/2000/svg">
<path d="M0.090625 5.99906C0.273358 5.2536 0.722563 4.588 1.36467 4.11127C2.00678 3.63454 2.80373 3.37495 3.625 3.375H25.375C26.1963 3.37495 26.9932 3.63454 27.6353 4.11127C28.2774 4.588 28.7266 5.2536 28.9094 5.99906L14.5 14.1986L0.090625 5.99906ZM0 7.92619V19.9142L10.5179 13.9101L0 7.92619ZM12.2543 14.9006L0.346187 21.6962C0.640404 22.2738 1.10477 22.7617 1.68523 23.1032C2.26569 23.4447 2.93838 23.6256 3.625 23.625H25.375C26.0615 23.6251 26.7339 23.4438 27.3141 23.102C27.8942 22.7603 28.3582 22.2722 28.652 21.6945L16.7439 14.8989L14.5 16.1764L12.2543 14.8989V14.9006ZM18.4821 13.9118L29 19.9142V7.92619L18.4821 13.9101V13.9118Z" fill="#1A2250"/>
</svg>
