<svg width="21" height="24" viewBox="0 0 21 24" fill="none" xmlns="http://www.w3.org/2000/svg">
<g clip-path="url(#clip0_63_1147)">
<path d="M21.0007 12.074C21.0007 5.40502 16.2993 -0.000976562 10.5007 -0.000976562C4.69942 0.000523438 -0.00195312 5.40502 -0.00195312 12.0755C-0.00195312 18.101 3.83842 23.096 8.85742 24.002V15.5645H6.19305V12.0755H8.86005V9.41302C8.86005 6.38752 10.4285 4.71652 12.8264 4.71652C13.9762 4.71652 15.1771 4.95202 15.1771 4.95202V7.92202H13.8528C12.5495 7.92202 12.1426 8.85352 12.1426 9.80902V12.074H15.0537L14.5891 15.563H12.1413V24.0005C17.1603 23.0945 21.0007 18.0995 21.0007 12.074Z" fill="white"/>
</g>
<defs>
<clipPath id="clip0_63_1147">
<rect width="21" height="24" fill="white"/>
</clipPath>
</defs>
</svg>
