<svg width="47" height="47" viewBox="0 0 47 47" fill="none" xmlns="http://www.w3.org/2000/svg">
<g clip-path="url(#clip0_63_787)">
<path d="M27.2982 0H11.75C10.1919 0 8.69752 0.618971 7.59575 1.72075C6.49397 2.82252 5.875 4.31685 5.875 5.875V41.125C5.875 42.6831 6.49397 44.1775 7.59575 45.2793C8.69752 46.381 10.1919 47 11.75 47H35.25C36.8081 47 38.3025 46.381 39.4043 45.2793C40.506 44.1775 41.125 42.6831 41.125 41.125V13.8268C41.1248 13.0478 40.8152 12.3008 40.2643 11.75L29.375 0.860688C28.8242 0.309761 28.0772 0.000166372 27.2982 0V0ZM27.9062 10.2812V4.40625L36.7188 13.2188H30.8438C30.0647 13.2188 29.3175 12.9093 28.7666 12.3584C28.2157 11.8075 27.9062 11.0603 27.9062 10.2812ZM13.2188 26.4375C12.8292 26.4375 12.4556 26.2828 12.1802 26.0073C11.9047 25.7319 11.75 25.3583 11.75 24.9688C11.75 24.5792 11.9047 24.2056 12.1802 23.9302C12.4556 23.6547 12.8292 23.5 13.2188 23.5H33.7812C34.1708 23.5 34.5444 23.6547 34.8198 23.9302C35.0953 24.2056 35.25 24.5792 35.25 24.9688C35.25 25.3583 35.0953 25.7319 34.8198 26.0073C34.5444 26.2828 34.1708 26.4375 33.7812 26.4375H13.2188ZM11.75 30.8438C11.75 30.4542 11.9047 30.0806 12.1802 29.8052C12.4556 29.5297 12.8292 29.375 13.2188 29.375H33.7812C34.1708 29.375 34.5444 29.5297 34.8198 29.8052C35.0953 30.0806 35.25 30.4542 35.25 30.8438C35.25 31.2333 35.0953 31.6069 34.8198 31.8823C34.5444 32.1578 34.1708 32.3125 33.7812 32.3125H13.2188C12.8292 32.3125 12.4556 32.1578 12.1802 31.8823C11.9047 31.6069 11.75 31.2333 11.75 30.8438ZM13.2188 38.1875C12.8292 38.1875 12.4556 38.0328 12.1802 37.7573C11.9047 37.4819 11.75 37.1083 11.75 36.7188C11.75 36.3292 11.9047 35.9556 12.1802 35.6802C12.4556 35.4047 12.8292 35.25 13.2188 35.25H24.9688C25.3583 35.25 25.7319 35.4047 26.0073 35.6802C26.2828 35.9556 26.4375 36.3292 26.4375 36.7188C26.4375 37.1083 26.2828 37.4819 26.0073 37.7573C25.7319 38.0328 25.3583 38.1875 24.9688 38.1875H13.2188Z" fill="#1A2250"/>
</g>
<defs>
<clipPath id="clip0_63_787">
<rect width="47" height="47" fill="white"/>
</clipPath>
</defs>
</svg>
