<svg width="51" height="51" viewBox="0 0 51 51" fill="none" xmlns="http://www.w3.org/2000/svg">
<g clip-path="url(#clip0_63_789)">
<path d="M26.173 6.52472C25.9623 6.42666 25.7328 6.37585 25.5004 6.37585C25.2681 6.37585 25.0385 6.42666 24.8279 6.52472L0.921619 17.681C0.640106 17.8124 0.403135 18.0232 0.239848 18.2875C0.0765609 18.5518 -0.00592128 18.858 0.00254528 19.1686C0.0110118 19.4791 0.110058 19.7804 0.287502 20.0354C0.464947 20.2905 0.713053 20.488 1.00131 20.6039L24.9076 30.1664C25.2881 30.3189 25.7128 30.3189 26.0933 30.1664L44.6254 22.7587V41.4374C43.7801 41.4374 42.9693 41.7732 42.3715 42.371C41.7738 42.9688 41.4379 43.7795 41.4379 44.6249V50.9999H51.0004V44.6249C51.0004 43.7795 50.6646 42.9688 50.0668 42.371C49.4691 41.7732 48.6583 41.4374 47.8129 41.4374V21.4805L49.9996 20.6039C50.2878 20.488 50.5359 20.2905 50.7134 20.0354C50.8908 19.7804 50.9899 19.4791 50.9983 19.1686C51.0068 18.858 50.9243 18.5518 50.761 18.2875C50.5977 18.0232 50.3608 17.8124 50.0792 17.681L26.173 6.52472Z" fill="#1A2250"/>
<path d="M13.3108 28.7894C13.1055 28.7121 12.8866 28.678 12.6676 28.6892C12.4485 28.7004 12.2342 28.7567 12.0379 28.8545C11.8416 28.9524 11.6677 29.0896 11.5269 29.2578C11.3861 29.426 11.2816 29.6213 11.2198 29.8318L9.62601 35.2505C9.51438 35.6309 9.54854 36.0393 9.72182 36.3959C9.8951 36.7525 10.1951 37.0317 10.5631 37.1789L24.9069 42.9165C25.2874 43.069 25.7121 43.069 26.0926 42.9165L40.4364 37.1789C40.8045 37.0317 41.1044 36.7525 41.2777 36.3959C41.451 36.0393 41.4851 35.6309 41.3735 35.2505L39.7798 29.8318C39.718 29.6213 39.6134 29.426 39.4726 29.2578C39.3318 29.0896 39.1579 28.9524 38.9616 28.8545C38.7653 28.7567 38.551 28.7004 38.332 28.6892C38.113 28.678 37.894 28.7121 37.6888 28.7894L25.4998 33.3603L13.3108 28.7894Z" fill="#1A2250"/>
</g>
<defs>
<clipPath id="clip0_63_789">
<rect width="51" height="51" fill="white"/>
</clipPath>
</defs>
</svg>
