<svg width="359" height="71" viewBox="0 0 359 71" fill="none" xmlns="http://www.w3.org/2000/svg">
<path d="M15.72 29.312C16.808 29.312 17.808 29.06 18.72 28.556C19.632 28.044 20.364 27.356 20.916 26.492C21.468 25.62 21.744 24.64 21.744 23.552C21.744 22.744 21.596 21.98 21.3 21.26C21.012 20.532 20.584 19.9 20.016 19.364C19.448 18.82 18.752 18.428 17.928 18.188L21.432 14.792V11.72H10.632V14.792H17.568L12.912 18.656L14.376 21.224C14.808 20.968 15.256 20.84 15.72 20.84C16.512 20.84 17.16 21.108 17.664 21.644C18.176 22.172 18.432 22.808 18.432 23.552C18.432 24.048 18.308 24.5 18.06 24.908C17.82 25.316 17.492 25.64 17.076 25.88C16.668 26.12 16.216 26.24 15.72 26.24C15.144 26.24 14.608 26.068 14.112 25.724C13.624 25.372 13.296 24.88 13.128 24.248L9.96 25.088C10.208 25.944 10.62 26.688 11.196 27.32C11.78 27.952 12.464 28.444 13.248 28.796C14.032 29.14 14.856 29.312 15.72 29.312ZM30.6437 29.36C31.8117 29.36 32.8517 29.124 33.7637 28.652C34.6757 28.172 35.3917 27.516 35.9117 26.684C36.4317 25.844 36.6917 24.888 36.6917 23.816C36.6917 23.024 36.5357 22.268 36.2237 21.548C35.9117 20.82 35.4677 20.208 34.8917 19.712C35.3317 19.208 35.6597 18.684 35.8757 18.14C36.0997 17.596 36.2117 16.992 36.2117 16.328C36.2117 15.328 35.9717 14.456 35.4917 13.712C35.0197 12.968 34.3637 12.392 33.5237 11.984C32.6917 11.568 31.7317 11.36 30.6437 11.36C29.5557 11.36 28.5917 11.568 27.7517 11.984C26.9197 12.392 26.2637 12.968 25.7837 13.712C25.3117 14.456 25.0757 15.328 25.0757 16.328C25.0757 16.992 25.1917 17.6 25.4237 18.152C25.6637 18.704 25.9957 19.224 26.4197 19.712C25.8357 20.232 25.3877 20.852 25.0757 21.572C24.7717 22.284 24.6197 23.032 24.6197 23.816C24.6197 24.888 24.8757 25.844 25.3877 26.684C25.9077 27.516 26.6197 28.172 27.5237 28.652C28.4357 29.124 29.4757 29.36 30.6437 29.36ZM30.6437 18.224C30.0197 18.224 29.5117 18.072 29.1197 17.768C28.7277 17.456 28.5317 16.976 28.5317 16.328C28.5317 15.68 28.7277 15.2 29.1197 14.888C29.5117 14.568 30.0197 14.408 30.6437 14.408C31.2677 14.408 31.7757 14.568 32.1677 14.888C32.5597 15.2 32.7557 15.68 32.7557 16.328C32.7557 16.976 32.5597 17.456 32.1677 17.768C31.7757 18.072 31.2677 18.224 30.6437 18.224ZM30.6437 26.288C29.8757 26.288 29.2557 26.08 28.7837 25.664C28.3117 25.248 28.0757 24.632 28.0757 23.816C28.0757 23.008 28.3117 22.392 28.7837 21.968C29.2557 21.536 29.8757 21.32 30.6437 21.32C31.4117 21.32 32.0357 21.536 32.5157 21.968C32.9957 22.392 33.2357 23.008 33.2357 23.816C33.2357 24.632 32.9957 25.248 32.5157 25.664C32.0357 26.08 31.4117 26.288 30.6437 26.288ZM46.2208 29.36C47.5008 29.36 48.6208 29.092 49.5808 28.556C50.5408 28.02 51.2888 27.272 51.8248 26.312C52.3608 25.352 52.6288 24.232 52.6288 22.952V17.768C52.6288 16.488 52.3608 15.368 51.8248 14.408C51.2888 13.448 50.5408 12.7 49.5808 12.164C48.6208 11.628 47.5008 11.36 46.2208 11.36C44.9408 11.36 43.8208 11.628 42.8608 12.164C41.9008 12.7 41.1528 13.448 40.6168 14.408C40.0808 15.368 39.8128 16.488 39.8128 17.768V22.952C39.8128 24.232 40.0808 25.352 40.6168 26.312C41.1528 27.272 41.9008 28.02 42.8608 28.556C43.8208 29.092 44.9408 29.36 46.2208 29.36ZM46.2208 26.264C45.6448 26.264 45.1248 26.128 44.6608 25.856C44.1968 25.584 43.8288 25.216 43.5568 24.752C43.2848 24.288 43.1488 23.768 43.1488 23.192V17.504C43.1488 16.928 43.2848 16.408 43.5568 15.944C43.8288 15.48 44.1968 15.112 44.6608 14.84C45.1248 14.568 45.6448 14.432 46.2208 14.432C46.7968 14.432 47.3168 14.568 47.7808 14.84C48.2448 15.112 48.6128 15.48 48.8848 15.944C49.1568 16.408 49.2928 16.928 49.2928 17.504V23.192C49.2928 23.768 49.1568 24.288 48.8848 24.752C48.6128 25.216 48.2448 25.584 47.7808 25.856C47.3168 26.128 46.7968 26.264 46.2208 26.264ZM62.3927 29.36C63.6727 29.36 64.7927 29.092 65.7527 28.556C66.7127 28.02 67.4607 27.272 67.9967 26.312C68.5327 25.352 68.8007 24.232 68.8007 22.952V17.768C68.8007 16.488 68.5327 15.368 67.9967 14.408C67.4607 13.448 66.7127 12.7 65.7527 12.164C64.7927 11.628 63.6727 11.36 62.3927 11.36C61.1127 11.36 59.9927 11.628 59.0327 12.164C58.0727 12.7 57.3247 13.448 56.7887 14.408C56.2527 15.368 55.9847 16.488 55.9847 17.768V22.952C55.9847 24.232 56.2527 25.352 56.7887 26.312C57.3247 27.272 58.0727 28.02 59.0327 28.556C59.9927 29.092 61.1127 29.36 62.3927 29.36ZM62.3927 26.264C61.8167 26.264 61.2967 26.128 60.8327 25.856C60.3687 25.584 60.0007 25.216 59.7287 24.752C59.4567 24.288 59.3207 23.768 59.3207 23.192V17.504C59.3207 16.928 59.4567 16.408 59.7287 15.944C60.0007 15.48 60.3687 15.112 60.8327 14.84C61.2967 14.568 61.8167 14.432 62.3927 14.432C62.9687 14.432 63.4887 14.568 63.9527 14.84C64.4167 15.112 64.7847 15.48 65.0567 15.944C65.3287 16.408 65.4647 16.928 65.4647 17.504V23.192C65.4647 23.768 65.3287 24.288 65.0567 24.752C64.7847 25.216 64.4167 25.584 63.9527 25.856C63.4887 26.128 62.9687 26.264 62.3927 26.264Z" fill="black"/>
<path d="M1.12 62H2.04V56.704H6.664V55.776H2.04V51.4H7.624V50.48H1.12V62ZM12.3671 62.24C13.2205 62.24 13.9458 62.048 14.5431 61.664C15.1405 61.28 15.5965 60.744 15.9111 60.056C16.2311 59.368 16.3911 58.5707 16.3911 57.664C16.3911 56.7733 16.2338 55.9867 15.9191 55.304C15.6098 54.6213 15.1538 54.088 14.5511 53.704C13.9538 53.3147 13.2258 53.12 12.3671 53.12C11.5298 53.12 10.8098 53.312 10.2071 53.696C9.60446 54.0747 9.14313 54.6053 8.82313 55.288C8.50313 55.9653 8.34313 56.7573 8.34313 57.664C8.34313 58.56 8.50046 59.352 8.81513 60.04C9.12979 60.728 9.58579 61.2667 10.1831 61.656C10.7858 62.0453 11.5138 62.24 12.3671 62.24ZM12.3671 61.344C11.3698 61.344 10.6125 61.008 10.0951 60.336C9.58313 59.664 9.32713 58.7733 9.32713 57.664C9.32713 56.9493 9.43646 56.3173 9.65513 55.768C9.87379 55.2187 10.2071 54.7893 10.6551 54.48C11.1085 54.1707 11.6791 54.016 12.3671 54.016C13.3805 54.016 14.1405 54.3467 14.6471 55.008C15.1538 55.6693 15.4071 56.5547 15.4071 57.664C15.4071 58.7573 15.1538 59.6453 14.6471 60.328C14.1458 61.0053 13.3858 61.344 12.3671 61.344ZM18.3113 62H19.2313V50.24H18.3113V62ZM21.7956 62H22.7156V50.24H21.7956V62ZM28.664 62.24C29.5173 62.24 30.2427 62.048 30.84 61.664C31.4373 61.28 31.8933 60.744 32.208 60.056C32.528 59.368 32.688 58.5707 32.688 57.664C32.688 56.7733 32.5307 55.9867 32.216 55.304C31.9067 54.6213 31.4507 54.088 30.848 53.704C30.2507 53.3147 29.5227 53.12 28.664 53.12C27.8267 53.12 27.1067 53.312 26.504 53.696C25.9013 54.0747 25.44 54.6053 25.12 55.288C24.8 55.9653 24.64 56.7573 24.64 57.664C24.64 58.56 24.7973 59.352 25.112 60.04C25.4267 60.728 25.8827 61.2667 26.48 61.656C27.0827 62.0453 27.8107 62.24 28.664 62.24ZM28.664 61.344C27.6667 61.344 26.9093 61.008 26.392 60.336C25.88 59.664 25.624 58.7733 25.624 57.664C25.624 56.9493 25.7333 56.3173 25.952 55.768C26.1707 55.2187 26.504 54.7893 26.952 54.48C27.4053 54.1707 27.976 54.016 28.664 54.016C29.6773 54.016 30.4373 54.3467 30.944 55.008C31.4507 55.6693 31.704 56.5547 31.704 57.664C31.704 58.7573 31.4507 59.6453 30.944 60.328C30.4427 61.0053 29.6827 61.344 28.664 61.344ZM35.9756 62H36.8396L39.0636 54.808L41.2796 62H42.1436L44.7836 53.36H43.8556L41.6796 60.456L39.5036 53.36H38.6156L36.4476 60.456L34.2796 53.36H33.3356L35.9756 62ZM49.4769 62.24C50.3195 62.24 51.0689 62.0373 51.7249 61.632C52.3809 61.2213 52.8822 60.6453 53.2289 59.904L52.3969 59.536C52.1035 60.1173 51.7062 60.5653 51.2049 60.88C50.7089 61.1893 50.1275 61.344 49.4609 61.344C48.5329 61.344 47.8049 61.048 47.2769 60.456C46.7489 59.8587 46.4662 59.0213 46.4289 57.944H53.4129C53.4342 56.4293 53.0955 55.248 52.3969 54.4C51.6982 53.5467 50.7195 53.12 49.4609 53.12C48.6342 53.12 47.9195 53.3067 47.3169 53.68C46.7142 54.048 46.2502 54.5733 45.9249 55.256C45.5995 55.9387 45.4369 56.752 45.4369 57.696C45.4369 58.624 45.5995 59.4293 45.9249 60.112C46.2555 60.7893 46.7222 61.3147 47.3249 61.688C47.9329 62.056 48.6502 62.24 49.4769 62.24ZM49.4769 53.992C50.3515 53.992 51.0369 54.2587 51.5329 54.792C52.0342 55.3253 52.3302 56.0987 52.4209 57.112H46.4449C46.5302 56.1147 46.8315 55.3467 47.3489 54.808C47.8715 54.264 48.5809 53.992 49.4769 53.992ZM55.1825 62H56.1105V57.72C56.1105 57.368 56.1265 57.008 56.1585 56.64C56.1958 56.2667 56.2812 55.912 56.4145 55.576C56.5532 55.2347 56.7692 54.936 57.0625 54.68C57.3932 54.3973 57.7505 54.232 58.1345 54.184C58.5238 54.136 58.8892 54.152 59.2305 54.232V53.36C58.8518 53.2533 58.4092 53.248 57.9025 53.344C57.4012 53.44 56.9772 53.6453 56.6305 53.96C56.4012 54.1573 56.1985 54.4107 56.0225 54.72V53.36H55.1825V62ZM63.6245 62.224C64.6645 62.224 65.4805 61.9973 66.0725 61.544C66.6698 61.0907 66.9685 60.4613 66.9685 59.656C66.9685 59.2133 66.8725 58.8427 66.6805 58.544C66.4885 58.24 66.1578 57.976 65.6885 57.752C65.2245 57.5227 64.5765 57.304 63.7445 57.096C63.0672 56.9253 62.5392 56.7653 62.1605 56.616C61.7872 56.4613 61.5258 56.296 61.3765 56.12C61.2325 55.9387 61.1605 55.7227 61.1605 55.472C61.1605 55.024 61.3712 54.664 61.7925 54.392C62.2138 54.1147 62.7578 53.9813 63.4245 53.992C64.1338 53.9973 64.7205 54.1627 65.1845 54.488C65.6538 54.808 65.9338 55.2453 66.0245 55.8L66.9685 55.624C66.9205 55.128 66.7392 54.6933 66.4245 54.32C66.1098 53.9413 65.6965 53.648 65.1845 53.44C64.6725 53.2267 64.0965 53.12 63.4565 53.12C62.8165 53.12 62.2512 53.2213 61.7605 53.424C61.2752 53.6267 60.8965 53.9093 60.6245 54.272C60.3525 54.6293 60.2165 55.0453 60.2165 55.52C60.2165 55.9147 60.3072 56.248 60.4885 56.52C60.6752 56.792 60.9925 57.0347 61.4405 57.248C61.8938 57.456 62.5205 57.6693 63.3205 57.888C64.0778 58.0907 64.6485 58.272 65.0325 58.432C65.4165 58.5867 65.6725 58.7547 65.8005 58.936C65.9338 59.1173 66.0005 59.3547 66.0005 59.648C66.0005 60.176 65.7898 60.592 65.3685 60.896C64.9472 61.2 64.3792 61.352 63.6645 61.352C62.9445 61.352 62.3365 61.2027 61.8405 60.904C61.3498 60.6 61.0352 60.1893 60.8965 59.672L59.9525 59.832C60.1072 60.584 60.5072 61.1707 61.1525 61.592C61.8032 62.0133 62.6272 62.224 63.6245 62.224Z" fill="black" fill-opacity="0.6"/>
<path d="M161.72 29.312C162.808 29.312 163.808 29.06 164.72 28.556C165.632 28.044 166.364 27.356 166.916 26.492C167.468 25.62 167.744 24.64 167.744 23.552C167.744 22.744 167.596 21.98 167.3 21.26C167.012 20.532 166.584 19.9 166.016 19.364C165.448 18.82 164.752 18.428 163.928 18.188L167.432 14.792V11.72H156.632V14.792H163.568L158.912 18.656L160.376 21.224C160.808 20.968 161.256 20.84 161.72 20.84C162.512 20.84 163.16 21.108 163.664 21.644C164.176 22.172 164.432 22.808 164.432 23.552C164.432 24.048 164.308 24.5 164.06 24.908C163.82 25.316 163.492 25.64 163.076 25.88C162.668 26.12 162.216 26.24 161.72 26.24C161.144 26.24 160.608 26.068 160.112 25.724C159.624 25.372 159.296 24.88 159.128 24.248L155.96 25.088C156.208 25.944 156.62 26.688 157.196 27.32C157.78 27.952 158.464 28.444 159.248 28.796C160.032 29.14 160.856 29.312 161.72 29.312Z" fill="black"/>
<path d="M291.464 29.36C292.632 29.36 293.672 29.124 294.584 28.652C295.496 28.172 296.212 27.516 296.732 26.684C297.252 25.844 297.512 24.888 297.512 23.816C297.512 23.024 297.356 22.268 297.044 21.548C296.732 20.82 296.288 20.208 295.712 19.712C296.152 19.208 296.48 18.684 296.696 18.14C296.92 17.596 297.032 16.992 297.032 16.328C297.032 15.328 296.792 14.456 296.312 13.712C295.84 12.968 295.184 12.392 294.344 11.984C293.512 11.568 292.552 11.36 291.464 11.36C290.376 11.36 289.412 11.568 288.572 11.984C287.74 12.392 287.084 12.968 286.604 13.712C286.132 14.456 285.896 15.328 285.896 16.328C285.896 16.992 286.012 17.6 286.244 18.152C286.484 18.704 286.816 19.224 287.24 19.712C286.656 20.232 286.208 20.852 285.896 21.572C285.592 22.284 285.44 23.032 285.44 23.816C285.44 24.888 285.696 25.844 286.208 26.684C286.728 27.516 287.44 28.172 288.344 28.652C289.256 29.124 290.296 29.36 291.464 29.36ZM291.464 18.224C290.84 18.224 290.332 18.072 289.94 17.768C289.548 17.456 289.352 16.976 289.352 16.328C289.352 15.68 289.548 15.2 289.94 14.888C290.332 14.568 290.84 14.408 291.464 14.408C292.088 14.408 292.596 14.568 292.988 14.888C293.38 15.2 293.576 15.68 293.576 16.328C293.576 16.976 293.38 17.456 292.988 17.768C292.596 18.072 292.088 18.224 291.464 18.224ZM291.464 26.288C290.696 26.288 290.076 26.08 289.604 25.664C289.132 25.248 288.896 24.632 288.896 23.816C288.896 23.008 289.132 22.392 289.604 21.968C290.076 21.536 290.696 21.32 291.464 21.32C292.232 21.32 292.856 21.536 293.336 21.968C293.816 22.392 294.056 23.008 294.056 23.816C294.056 24.632 293.816 25.248 293.336 25.664C292.856 26.08 292.232 26.288 291.464 26.288ZM305.673 29.312C306.761 29.312 307.761 29.06 308.673 28.556C309.585 28.044 310.317 27.356 310.869 26.492C311.421 25.62 311.697 24.64 311.697 23.552C311.697 22.744 311.549 21.98 311.253 21.26C310.965 20.532 310.537 19.9 309.969 19.364C309.401 18.82 308.705 18.428 307.881 18.188L311.385 14.792V11.72H300.585V14.792H307.521L302.865 18.656L304.329 21.224C304.761 20.968 305.209 20.84 305.673 20.84C306.465 20.84 307.113 21.108 307.617 21.644C308.129 22.172 308.385 22.808 308.385 23.552C308.385 24.048 308.261 24.5 308.013 24.908C307.773 25.316 307.445 25.64 307.029 25.88C306.621 26.12 306.169 26.24 305.673 26.24C305.097 26.24 304.561 26.068 304.065 25.724C303.577 25.372 303.249 24.88 303.081 24.248L299.913 25.088C300.161 25.944 300.573 26.688 301.149 27.32C301.733 27.952 302.417 28.444 303.201 28.796C303.985 29.14 304.809 29.312 305.673 29.312Z" fill="black"/>
<path d="M283.72 62.24C285.059 62.24 286.144 61.8933 286.976 61.2C287.813 60.5013 288.381 59.5733 288.68 58.416L287.728 58.184C287.483 59.1493 287.024 59.9173 286.352 60.488C285.68 61.0533 284.803 61.336 283.72 61.336C282.776 61.336 281.987 61.12 281.352 60.688C280.717 60.256 280.24 59.656 279.92 58.888C279.605 58.12 279.453 57.2373 279.464 56.24C279.475 55.2373 279.637 54.3547 279.952 53.592C280.267 52.824 280.736 52.224 281.36 51.792C281.989 51.36 282.776 51.144 283.72 51.144C284.803 51.144 285.68 51.4293 286.352 52C287.024 52.5653 287.483 53.3307 287.728 54.296L288.68 54.064C288.381 52.9013 287.813 51.9733 286.976 51.28C286.144 50.5867 285.059 50.24 283.72 50.24C282.573 50.24 281.611 50.496 280.832 51.008C280.053 51.5147 279.467 52.2187 279.072 53.12C278.677 54.0213 278.48 55.0613 278.48 56.24C278.48 57.4133 278.677 58.4533 279.072 59.36C279.467 60.2613 280.053 60.968 280.832 61.48C281.611 61.9867 282.573 62.24 283.72 62.24ZM293.753 62.2C294.371 62.2 294.934 62.0773 295.441 61.832C295.953 61.5867 296.369 61.2107 296.689 60.704V62H297.529V53.36H296.601V58.024C296.601 58.6587 296.502 59.224 296.305 59.72C296.113 60.216 295.817 60.6053 295.417 60.888C295.017 61.1707 294.502 61.312 293.873 61.312C292.971 61.312 292.299 61.0107 291.857 60.408C291.419 59.8 291.201 58.9493 291.201 57.856V53.36H290.273V58.088C290.273 58.84 290.395 59.528 290.641 60.152C290.891 60.776 291.273 61.2747 291.785 61.648C292.302 62.016 292.958 62.2 293.753 62.2ZM302.953 62.224C303.993 62.224 304.809 61.9973 305.401 61.544C305.998 61.0907 306.297 60.4613 306.297 59.656C306.297 59.2133 306.201 58.8427 306.009 58.544C305.817 58.24 305.486 57.976 305.017 57.752C304.553 57.5227 303.905 57.304 303.073 57.096C302.395 56.9253 301.867 56.7653 301.489 56.616C301.115 56.4613 300.854 56.296 300.705 56.12C300.561 55.9387 300.489 55.7227 300.489 55.472C300.489 55.024 300.699 54.664 301.121 54.392C301.542 54.1147 302.086 53.9813 302.753 53.992C303.462 53.9973 304.049 54.1627 304.513 54.488C304.982 54.808 305.262 55.2453 305.353 55.8L306.297 55.624C306.249 55.128 306.067 54.6933 305.753 54.32C305.438 53.9413 305.025 53.648 304.513 53.44C304.001 53.2267 303.425 53.12 302.785 53.12C302.145 53.12 301.579 53.2213 301.089 53.424C300.603 53.6267 300.225 53.9093 299.953 54.272C299.681 54.6293 299.545 55.0453 299.545 55.52C299.545 55.9147 299.635 56.248 299.817 56.52C300.003 56.792 300.321 57.0347 300.769 57.248C301.222 57.456 301.849 57.6693 302.649 57.888C303.406 58.0907 303.977 58.272 304.361 58.432C304.745 58.5867 305.001 58.7547 305.129 58.936C305.262 59.1173 305.329 59.3547 305.329 59.648C305.329 60.176 305.118 60.592 304.697 60.896C304.275 61.2 303.707 61.352 302.993 61.352C302.273 61.352 301.665 61.2027 301.169 60.904C300.678 60.6 300.363 60.1893 300.225 59.672L299.281 59.832C299.435 60.584 299.835 61.1707 300.481 61.592C301.131 62.0133 301.955 62.224 302.953 62.224ZM312.657 62V61.168C312.012 61.2693 311.481 61.2827 311.065 61.208C310.649 61.128 310.345 60.904 310.153 60.536C310.052 60.3387 309.996 60.1227 309.985 59.888C309.98 59.6533 309.977 59.352 309.977 58.984V54.2H312.657V53.36H309.977V50.96H309.049V53.36H307.113V54.2H309.049V59C309.049 59.4 309.057 59.7573 309.073 60.072C309.089 60.3813 309.169 60.6853 309.313 60.984C309.489 61.352 309.753 61.6267 310.105 61.808C310.457 61.9893 310.854 62.0907 311.297 62.112C311.745 62.1333 312.198 62.096 312.657 62ZM317.57 62.24C318.424 62.24 319.149 62.048 319.746 61.664C320.344 61.28 320.8 60.744 321.114 60.056C321.434 59.368 321.594 58.5707 321.594 57.664C321.594 56.7733 321.437 55.9867 321.122 55.304C320.813 54.6213 320.357 54.088 319.754 53.704C319.157 53.3147 318.429 53.12 317.57 53.12C316.733 53.12 316.013 53.312 315.41 53.696C314.808 54.0747 314.346 54.6053 314.026 55.288C313.706 55.9653 313.546 56.7573 313.546 57.664C313.546 58.56 313.704 59.352 314.018 60.04C314.333 60.728 314.789 61.2667 315.386 61.656C315.989 62.0453 316.717 62.24 317.57 62.24ZM317.57 61.344C316.573 61.344 315.816 61.008 315.298 60.336C314.786 59.664 314.53 58.7733 314.53 57.664C314.53 56.9493 314.64 56.3173 314.858 55.768C315.077 55.2187 315.41 54.7893 315.858 54.48C316.312 54.1707 316.882 54.016 317.57 54.016C318.584 54.016 319.344 54.3467 319.85 55.008C320.357 55.6693 320.61 56.5547 320.61 57.664C320.61 58.7573 320.357 59.6453 319.85 60.328C319.349 61.0053 318.589 61.344 317.57 61.344ZM323.354 62H324.274V56.344C324.274 55.6187 324.472 55.04 324.866 54.608C325.261 54.1707 325.776 53.952 326.41 53.952C327.034 53.952 327.541 54.1627 327.93 54.584C328.32 55 328.514 55.5653 328.514 56.28L328.498 62H329.41L329.426 56.344C329.426 55.752 329.536 55.2827 329.754 54.936C329.973 54.584 330.245 54.3333 330.57 54.184C330.901 54.0293 331.234 53.952 331.57 53.952C332.162 53.952 332.656 54.152 333.05 54.552C333.45 54.9467 333.65 55.4933 333.65 56.192L333.634 62H334.554L334.57 56.056C334.57 55.1493 334.306 54.4347 333.778 53.912C333.25 53.3893 332.565 53.128 331.722 53.128C331.146 53.128 330.629 53.2587 330.17 53.52C329.717 53.7813 329.368 54.144 329.122 54.608C328.888 54.112 328.546 53.7413 328.098 53.496C327.65 53.2507 327.152 53.128 326.602 53.128C326.09 53.128 325.626 53.2293 325.21 53.432C324.794 53.6347 324.456 53.912 324.194 54.264V53.36H323.354V62ZM340.18 62.24C341.023 62.24 341.772 62.0373 342.428 61.632C343.084 61.2213 343.585 60.6453 343.932 59.904L343.1 59.536C342.807 60.1173 342.409 60.5653 341.908 60.88C341.412 61.1893 340.831 61.344 340.164 61.344C339.236 61.344 338.508 61.048 337.98 60.456C337.452 59.8587 337.169 59.0213 337.132 57.944H344.116C344.137 56.4293 343.799 55.248 343.1 54.4C342.401 53.5467 341.423 53.12 340.164 53.12C339.337 53.12 338.623 53.3067 338.02 53.68C337.417 54.048 336.953 54.5733 336.628 55.256C336.303 55.9387 336.14 56.752 336.14 57.696C336.14 58.624 336.303 59.4293 336.628 60.112C336.959 60.7893 337.425 61.3147 338.028 61.688C338.636 62.056 339.353 62.24 340.18 62.24ZM340.18 53.992C341.055 53.992 341.74 54.2587 342.236 54.792C342.737 55.3253 343.033 56.0987 343.124 57.112H337.148C337.233 56.1147 337.535 55.3467 338.052 54.808C338.575 54.264 339.284 53.992 340.18 53.992ZM345.886 62H346.814V57.72C346.814 57.368 346.83 57.008 346.862 56.64C346.899 56.2667 346.984 55.912 347.118 55.576C347.256 55.2347 347.472 54.936 347.766 54.68C348.096 54.3973 348.454 54.232 348.838 54.184C349.227 54.136 349.592 54.152 349.934 54.232V53.36C349.555 53.2533 349.112 53.248 348.606 53.344C348.104 53.44 347.68 53.6453 347.334 53.96C347.104 54.1573 346.902 54.4107 346.726 54.72V53.36H345.886V62ZM354.328 62.224C355.368 62.224 356.184 61.9973 356.776 61.544C357.373 61.0907 357.672 60.4613 357.672 59.656C357.672 59.2133 357.576 58.8427 357.384 58.544C357.192 58.24 356.861 57.976 356.392 57.752C355.928 57.5227 355.28 57.304 354.448 57.096C353.77 56.9253 353.242 56.7653 352.864 56.616C352.49 56.4613 352.229 56.296 352.08 56.12C351.936 55.9387 351.864 55.7227 351.864 55.472C351.864 55.024 352.074 54.664 352.496 54.392C352.917 54.1147 353.461 53.9813 354.128 53.992C354.837 53.9973 355.424 54.1627 355.888 54.488C356.357 54.808 356.637 55.2453 356.728 55.8L357.672 55.624C357.624 55.128 357.442 54.6933 357.128 54.32C356.813 53.9413 356.4 53.648 355.888 53.44C355.376 53.2267 354.8 53.12 354.16 53.12C353.52 53.12 352.954 53.2213 352.464 53.424C351.978 53.6267 351.6 53.9093 351.328 54.272C351.056 54.6293 350.92 55.0453 350.92 55.52C350.92 55.9147 351.01 56.248 351.192 56.52C351.378 56.792 351.696 57.0347 352.144 57.248C352.597 57.456 353.224 57.6693 354.024 57.888C354.781 58.0907 355.352 58.272 355.736 58.432C356.12 58.5867 356.376 58.7547 356.504 58.936C356.637 59.1173 356.704 59.3547 356.704 59.648C356.704 60.176 356.493 60.592 356.072 60.896C355.65 61.2 355.082 61.352 354.368 61.352C353.648 61.352 353.04 61.2027 352.544 60.904C352.053 60.6 351.738 60.1893 351.6 59.672L350.656 59.832C350.81 60.584 351.21 61.1707 351.856 61.592C352.506 62.0133 353.33 62.224 354.328 62.224Z" fill="black" fill-opacity="0.6"/>
<path d="M130.288 62H131.208V51.376H135.336V50.48H126.16V51.376H130.288V62ZM138.899 62.24C139.741 62.24 140.491 62.0373 141.147 61.632C141.803 61.2213 142.304 60.6453 142.651 59.904L141.819 59.536C141.525 60.1173 141.128 60.5653 140.627 60.88C140.131 61.1893 139.549 61.344 138.883 61.344C137.955 61.344 137.227 61.048 136.699 60.456C136.171 59.8587 135.888 59.0213 135.851 57.944H142.835C142.856 56.4293 142.517 55.248 141.819 54.4C141.12 53.5467 140.141 53.12 138.883 53.12C138.056 53.12 137.341 53.3067 136.739 53.68C136.136 54.048 135.672 54.5733 135.347 55.256C135.021 55.9387 134.859 56.752 134.859 57.696C134.859 58.624 135.021 59.4293 135.347 60.112C135.677 60.7893 136.144 61.3147 136.747 61.688C137.355 62.056 138.072 62.24 138.899 62.24ZM138.899 53.992C139.773 53.992 140.459 54.2587 140.955 54.792C141.456 55.3253 141.752 56.0987 141.843 57.112H135.867C135.952 56.1147 136.253 55.3467 136.771 54.808C137.293 54.264 138.003 53.992 138.899 53.992ZM146.944 62.24C147.691 62.24 148.355 62.0907 148.936 61.792C149.523 61.4933 149.981 61.0613 150.312 60.496V62H151.152V56.616C151.152 56.3067 151.136 56 151.104 55.696C151.072 55.3867 151.011 55.1173 150.92 54.888C150.707 54.3333 150.328 53.9013 149.784 53.592C149.245 53.2773 148.579 53.12 147.784 53.12C146.851 53.12 146.085 53.3307 145.488 53.752C144.891 54.1733 144.493 54.776 144.296 55.56L145.24 55.824C145.571 54.6133 146.408 54.008 147.752 54.008C148.659 54.008 149.299 54.224 149.672 54.656C150.051 55.088 150.237 55.7413 150.232 56.616C149.896 56.6587 149.496 56.7093 149.032 56.768C148.568 56.8213 148.091 56.8853 147.6 56.96C147.115 57.0347 146.661 57.1173 146.24 57.208C145.611 57.3573 145.075 57.6267 144.632 58.016C144.189 58.4053 143.968 58.9653 143.968 59.696C143.968 60.1493 144.077 60.5707 144.296 60.96C144.515 61.344 144.845 61.6533 145.288 61.888C145.731 62.1227 146.283 62.24 146.944 62.24ZM146.992 61.392C146.475 61.392 146.064 61.3067 145.76 61.136C145.456 60.9653 145.237 60.7493 145.104 60.488C144.976 60.2267 144.912 59.9653 144.912 59.704C144.912 59.352 144.995 59.0613 145.16 58.832C145.331 58.6027 145.541 58.4213 145.792 58.288C146.048 58.1547 146.301 58.056 146.552 57.992C146.909 57.9013 147.307 57.824 147.744 57.76C148.181 57.6907 148.616 57.6347 149.048 57.592C149.485 57.544 149.88 57.5013 150.232 57.464C150.232 57.656 150.224 57.88 150.208 58.136C150.197 58.3867 150.173 58.6213 150.136 58.84C150.024 59.6133 149.691 60.232 149.136 60.696C148.587 61.16 147.872 61.392 146.992 61.392ZM153.229 62H154.149V56.344C154.149 55.6187 154.347 55.04 154.741 54.608C155.136 54.1707 155.651 53.952 156.285 53.952C156.909 53.952 157.416 54.1627 157.805 54.584C158.195 55 158.389 55.5653 158.389 56.28L158.373 62H159.285L159.301 56.344C159.301 55.752 159.411 55.2827 159.629 54.936C159.848 54.584 160.12 54.3333 160.445 54.184C160.776 54.0293 161.109 53.952 161.445 53.952C162.037 53.952 162.531 54.152 162.925 54.552C163.325 54.9467 163.525 55.4933 163.525 56.192L163.509 62H164.429L164.445 56.056C164.445 55.1493 164.181 54.4347 163.653 53.912C163.125 53.3893 162.44 53.128 161.597 53.128C161.021 53.128 160.504 53.2587 160.045 53.52C159.592 53.7813 159.243 54.144 158.997 54.608C158.763 54.112 158.421 53.7413 157.973 53.496C157.525 53.2507 157.027 53.128 156.477 53.128C155.965 53.128 155.501 53.2293 155.085 53.432C154.669 53.6347 154.331 53.912 154.069 54.264V53.36H153.229V62ZM169.729 62H170.625V52.6L174.921 62H175.673L179.961 52.6V61.984H180.865V50.48H179.977L175.305 60.672L170.585 50.48H169.729V62ZM186.664 62.24C187.507 62.24 188.256 62.0373 188.912 61.632C189.568 61.2213 190.07 60.6453 190.416 59.904L189.584 59.536C189.291 60.1173 188.894 60.5653 188.392 60.88C187.896 61.1893 187.315 61.344 186.648 61.344C185.72 61.344 184.992 61.048 184.464 60.456C183.936 59.8587 183.654 59.0213 183.616 57.944H190.6C190.622 56.4293 190.283 55.248 189.584 54.4C188.886 53.5467 187.907 53.12 186.648 53.12C185.822 53.12 185.107 53.3067 184.504 53.68C183.902 54.048 183.438 54.5733 183.112 55.256C182.787 55.9387 182.624 56.752 182.624 57.696C182.624 58.624 182.787 59.4293 183.112 60.112C183.443 60.7893 183.91 61.3147 184.512 61.688C185.12 62.056 185.838 62.24 186.664 62.24ZM186.664 53.992C187.539 53.992 188.224 54.2587 188.72 54.792C189.222 55.3253 189.518 56.0987 189.608 57.112H183.632C183.718 56.1147 184.019 55.3467 184.536 54.808C185.059 54.264 185.768 53.992 186.664 53.992ZM192.136 62H193.056V56.344C193.056 55.6187 193.253 55.04 193.648 54.608C194.042 54.1707 194.557 53.952 195.192 53.952C195.816 53.952 196.322 54.1627 196.712 54.584C197.101 55 197.296 55.5653 197.296 56.28L197.28 62H198.192L198.208 56.344C198.208 55.752 198.317 55.2827 198.536 54.936C198.754 54.584 199.026 54.3333 199.352 54.184C199.682 54.0293 200.016 53.952 200.352 53.952C200.944 53.952 201.437 54.152 201.832 54.552C202.232 54.9467 202.432 55.4933 202.432 56.192L202.416 62H203.336L203.352 56.056C203.352 55.1493 203.088 54.4347 202.56 53.912C202.032 53.3893 201.346 53.128 200.504 53.128C199.928 53.128 199.41 53.2587 198.952 53.52C198.498 53.7813 198.149 54.144 197.904 54.608C197.669 54.112 197.328 53.7413 196.88 53.496C196.432 53.2507 195.933 53.128 195.384 53.128C194.872 53.128 194.408 53.2293 193.992 53.432C193.576 53.6347 193.237 53.912 192.976 54.264V53.36H192.136V62ZM205.433 62H206.273V60.536C206.577 61.0587 206.974 61.4747 207.465 61.784C207.961 62.088 208.545 62.24 209.217 62.24C210.033 62.24 210.723 62.04 211.289 61.64C211.854 61.2347 212.283 60.688 212.576 60C212.87 59.3067 213.017 58.528 213.017 57.664C213.017 56.8107 212.87 56.0427 212.576 55.36C212.289 54.672 211.867 54.128 211.313 53.728C210.758 53.3227 210.089 53.12 209.305 53.12C208.638 53.12 208.057 53.2587 207.561 53.536C207.065 53.808 206.662 54.1867 206.353 54.672V50.48H205.433V62ZM209.161 61.36C208.515 61.36 207.979 61.2 207.553 60.88C207.126 60.5547 206.806 60.1147 206.593 59.56C206.379 59 206.273 58.368 206.273 57.664C206.273 56.9493 206.379 56.3173 206.593 55.768C206.806 55.2187 207.126 54.7867 207.553 54.472C207.979 54.1573 208.51 54 209.145 54C209.801 54 210.342 54.1627 210.769 54.488C211.195 54.808 211.513 55.2453 211.721 55.8C211.929 56.3493 212.033 56.9707 212.033 57.664C212.033 58.3627 211.926 58.992 211.713 59.552C211.499 60.1067 211.179 60.5467 210.753 60.872C210.326 61.1973 209.795 61.36 209.161 61.36ZM218.336 62.24C219.179 62.24 219.928 62.0373 220.584 61.632C221.24 61.2213 221.742 60.6453 222.088 59.904L221.256 59.536C220.963 60.1173 220.566 60.5653 220.064 60.88C219.568 61.1893 218.987 61.344 218.32 61.344C217.392 61.344 216.664 61.048 216.136 60.456C215.608 59.8587 215.326 59.0213 215.288 57.944H222.272C222.294 56.4293 221.955 55.248 221.256 54.4C220.558 53.5467 219.579 53.12 218.32 53.12C217.494 53.12 216.779 53.3067 216.176 53.68C215.574 54.048 215.11 54.5733 214.784 55.256C214.459 55.9387 214.296 56.752 214.296 57.696C214.296 58.624 214.459 59.4293 214.784 60.112C215.115 60.7893 215.582 61.3147 216.184 61.688C216.792 62.056 217.51 62.24 218.336 62.24ZM218.336 53.992C219.211 53.992 219.896 54.2587 220.392 54.792C220.894 55.3253 221.19 56.0987 221.28 57.112H215.304C215.39 56.1147 215.691 55.3467 216.208 54.808C216.731 54.264 217.44 53.992 218.336 53.992ZM224.042 62H224.97V57.72C224.97 57.368 224.986 57.008 225.018 56.64C225.055 56.2667 225.141 55.912 225.274 55.576C225.413 55.2347 225.629 54.936 225.922 54.68C226.253 54.3973 226.61 54.232 226.994 54.184C227.383 54.136 227.749 54.152 228.09 54.232V53.36C227.711 53.2533 227.269 53.248 226.762 53.344C226.261 53.44 225.837 53.6453 225.49 53.96C225.261 54.1573 225.058 54.4107 224.882 54.72V53.36H224.042V62ZM232.484 62.224C233.524 62.224 234.34 61.9973 234.932 61.544C235.529 61.0907 235.828 60.4613 235.828 59.656C235.828 59.2133 235.732 58.8427 235.54 58.544C235.348 58.24 235.017 57.976 234.548 57.752C234.084 57.5227 233.436 57.304 232.604 57.096C231.927 56.9253 231.399 56.7653 231.02 56.616C230.647 56.4613 230.385 56.296 230.236 56.12C230.092 55.9387 230.02 55.7227 230.02 55.472C230.02 55.024 230.231 54.664 230.652 54.392C231.073 54.1147 231.617 53.9813 232.284 53.992C232.993 53.9973 233.58 54.1627 234.044 54.488C234.513 54.808 234.793 55.2453 234.884 55.8L235.828 55.624C235.78 55.128 235.599 54.6933 235.284 54.32C234.969 53.9413 234.556 53.648 234.044 53.44C233.532 53.2267 232.956 53.12 232.316 53.12C231.676 53.12 231.111 53.2213 230.62 53.424C230.135 53.6267 229.756 53.9093 229.484 54.272C229.212 54.6293 229.076 55.0453 229.076 55.52C229.076 55.9147 229.167 56.248 229.348 56.52C229.535 56.792 229.852 57.0347 230.3 57.248C230.753 57.456 231.38 57.6693 232.18 57.888C232.937 58.0907 233.508 58.272 233.892 58.432C234.276 58.5867 234.532 58.7547 234.66 58.936C234.793 59.1173 234.86 59.3547 234.86 59.648C234.86 60.176 234.649 60.592 234.228 60.896C233.807 61.2 233.239 61.352 232.524 61.352C231.804 61.352 231.196 61.2027 230.7 60.904C230.209 60.6 229.895 60.1893 229.756 59.672L228.812 59.832C228.967 60.584 229.367 61.1707 230.012 61.592C230.663 62.0133 231.487 62.224 232.484 62.224Z" fill="black" fill-opacity="0.6"/>
<path d="M103 0V64.5" stroke="#190F29" stroke-opacity="0.4"/>
<path d="M254 0V64.5" stroke="#190F29" stroke-opacity="0.4"/>
</svg>
