<svg width="42" height="42" viewBox="0 0 42 42" fill="none" xmlns="http://www.w3.org/2000/svg">
<path d="M21 7.875C17.519 7.875 14.1806 9.25781 11.7192 11.7192C9.25781 14.1806 7.875 17.519 7.875 21V23.625H10.5C11.1962 23.625 11.8639 23.9016 12.3562 24.3938C12.8484 24.8861 13.125 25.5538 13.125 26.25V34.125C13.125 34.8212 12.8484 35.4889 12.3562 35.9812C11.8639 36.4734 11.1962 36.75 10.5 36.75H7.875C7.17881 36.75 6.51113 36.4734 6.01884 35.9812C5.52656 35.4889 5.25 34.8212 5.25 34.125V21C5.25 18.9317 5.65739 16.8836 6.4489 14.9727C7.24041 13.0619 8.40055 11.3256 9.86307 9.86307C11.3256 8.40055 13.0619 7.24041 14.9727 6.4489C16.8836 5.65739 18.9317 5.25 21 5.25C23.0683 5.25 25.1164 5.65739 27.0273 6.4489C28.9381 7.24041 30.6744 8.40055 32.1369 9.86307C33.5995 11.3256 34.7596 13.0619 35.5511 14.9727C36.3426 16.8836 36.75 18.9317 36.75 21V34.125C36.75 34.8212 36.4734 35.4889 35.9812 35.9812C35.4889 36.4734 34.8212 36.75 34.125 36.75H31.5C30.8038 36.75 30.1361 36.4734 29.6438 35.9812C29.1516 35.4889 28.875 34.8212 28.875 34.125V26.25C28.875 25.5538 29.1516 24.8861 29.6438 24.3938C30.1361 23.9016 30.8038 23.625 31.5 23.625H34.125V21C34.125 17.519 32.7422 14.1806 30.2808 11.7192C27.8194 9.25781 24.481 7.875 21 7.875Z" fill="#FBBE3D"/>
</svg>
