<svg width="22" height="24" viewBox="0 0 22 24" fill="none" xmlns="http://www.w3.org/2000/svg">
<path d="M11 0C8.01488 0 7.6395 0.015 6.46663 0.072C5.29375 0.132 4.49487 0.333 3.795 0.63C3.06088 0.931229 2.39593 1.40374 1.84663 2.0145C1.2871 2.61404 0.854023 3.33936 0.5775 4.14C0.30525 4.902 0.119625 5.775 0.066 7.05C0.01375 8.3325 0 8.7405 0 12.0015C0 15.2595 0.01375 15.6675 0.066 16.947C0.121 18.225 0.30525 19.0965 0.5775 19.86C0.859375 20.649 1.23475 21.318 1.84663 21.9855C2.45713 22.653 3.07037 23.064 3.79363 23.37C4.49487 23.667 5.29238 23.8695 6.46388 23.928C7.63813 23.985 8.01213 24 11 24C13.9879 24 14.3605 23.985 15.5347 23.928C16.7049 23.868 17.5065 23.667 18.2064 23.37C18.94 23.0686 19.6045 22.5961 20.1534 21.9855C20.7652 21.318 21.1406 20.649 21.4225 19.86C21.6934 19.0965 21.879 18.225 21.934 16.947C21.9862 15.6675 22 15.2595 22 12C22 8.7405 21.9862 8.3325 21.934 7.0515C21.879 5.775 21.6934 4.902 21.4225 4.14C21.146 3.33934 20.7129 2.61401 20.1534 2.0145C19.6042 1.40351 18.9392 0.930968 18.205 0.63C17.5037 0.333 16.7035 0.1305 15.5334 0.072C14.3591 0.015 13.9865 0 10.9973 0H11.0014H11ZM10.0141 2.163H11.0014C13.9384 2.163 14.2863 2.1735 15.4454 2.232C16.5179 2.2845 17.1009 2.481 17.4886 2.6445C18.0015 2.862 18.3686 3.123 18.7536 3.543C19.1386 3.963 19.3765 4.362 19.5759 4.923C19.7271 5.3445 19.9059 5.9805 19.954 7.1505C20.0076 8.415 20.0186 8.7945 20.0186 11.997C20.0186 15.1995 20.0076 15.5805 19.954 16.845C19.9059 18.015 19.7257 18.6495 19.5759 19.0725C19.3995 19.5935 19.118 20.0647 18.7522 20.451C18.3672 20.871 18.0015 21.1305 17.4873 21.348C17.1023 21.513 16.5192 21.708 15.4454 21.762C14.2863 21.819 13.9384 21.8325 11.0014 21.8325C8.06438 21.8325 7.71513 21.819 6.556 21.762C5.4835 21.708 4.90188 21.513 4.51412 21.348C4.03631 21.1559 3.60405 20.8494 3.24913 20.451C2.88303 20.0641 2.60112 19.5925 2.42412 19.071C2.27425 18.6495 2.09413 18.0135 2.046 16.8435C1.99375 15.579 1.98275 15.1995 1.98275 11.994C1.98275 8.79 1.99375 8.412 2.046 7.1475C2.0955 5.9775 2.27425 5.3415 2.4255 4.9185C2.62488 4.359 2.86412 3.9585 3.24913 3.5385C3.63412 3.1185 3.99988 2.859 4.51412 2.6415C4.90188 2.4765 5.4835 2.2815 6.556 2.2275C7.57075 2.1765 7.964 2.1615 10.0141 2.16V2.163ZM16.8726 4.155C16.6993 4.155 16.5276 4.19225 16.3675 4.26461C16.2073 4.33698 16.0618 4.44305 15.9392 4.57677C15.8167 4.71048 15.7194 4.86923 15.6531 5.04394C15.5868 5.21864 15.5526 5.4059 15.5526 5.595C15.5526 5.7841 15.5868 5.97135 15.6531 6.14606C15.7194 6.32077 15.8167 6.47952 15.9392 6.61323C16.0618 6.74695 16.2073 6.85302 16.3675 6.92539C16.5276 6.99775 16.6993 7.035 16.8726 7.035C17.2227 7.035 17.5585 6.88329 17.806 6.61323C18.0536 6.34318 18.1926 5.97691 18.1926 5.595C18.1926 5.21309 18.0536 4.84682 17.806 4.57677C17.5585 4.30671 17.2227 4.155 16.8726 4.155ZM11.0014 5.838C10.2521 5.82525 9.50798 5.97523 8.81234 6.27921C8.11671 6.58319 7.48346 7.03511 6.94946 7.60863C6.41546 8.18216 5.99138 8.86585 5.70191 9.61989C5.41244 10.3739 5.26336 11.1833 5.26336 12.0007C5.26336 12.8182 5.41244 13.6276 5.70191 14.3816C5.99138 15.1356 6.41546 15.8193 6.94946 16.3929C7.48346 16.9664 8.11671 17.4183 8.81234 17.7223C9.50798 18.0263 10.2521 18.1763 11.0014 18.1635C12.4844 18.1383 13.8988 17.4779 14.9393 16.3249C15.9799 15.1719 16.5631 13.6188 16.5631 12.0007C16.5631 10.3827 15.9799 8.82962 14.9393 7.67662C13.8988 6.52363 12.4844 5.86324 11.0014 5.838ZM11.0014 7.9995C11.974 7.9995 12.9067 8.42098 13.5944 9.17122C14.2821 9.92146 14.6685 10.939 14.6685 12C14.6685 13.061 14.2821 14.0785 13.5944 14.8288C12.9067 15.579 11.974 16.0005 11.0014 16.0005C10.0288 16.0005 9.09605 15.579 8.40833 14.8288C7.72061 14.0785 7.33425 13.061 7.33425 12C7.33425 10.939 7.72061 9.92146 8.40833 9.17122C9.09605 8.42098 10.0288 7.9995 11.0014 7.9995Z" fill="white"/>
</svg>
