<svg width="33" height="33" viewBox="0 0 33 33" fill="none" xmlns="http://www.w3.org/2000/svg">
<path d="M0 2.36363C0 1.05806 1.08487 0 2.42344 0H30.5766C31.9151 0 33 1.05806 33 2.36363V30.6364C33 31.9419 31.9151 33 30.5766 33H2.42344C1.08487 33 0 31.9419 0 30.6364V2.36363ZM10.1949 27.6251V12.7236H5.24288V27.6251H10.1949ZM7.71994 10.6879C9.44625 10.6879 10.5208 9.54525 10.5208 8.11388C10.4899 6.65156 9.44831 5.53988 7.75294 5.53988C6.05756 5.53988 4.95 6.65363 4.95 8.11388C4.95 9.54525 6.02456 10.6879 7.68694 10.6879H7.71994ZM17.8427 27.6251V19.3029C17.8427 18.8574 17.8757 18.4119 18.0077 18.0943C18.3645 17.2054 19.1792 16.2834 20.5487 16.2834C22.341 16.2834 23.0567 17.6488 23.0567 19.6536V27.6251H28.0087V19.0781C28.0087 14.4994 25.5667 12.3709 22.308 12.3709C19.6804 12.3709 18.5027 13.8146 17.8427 14.8314V14.883H17.8097C17.8206 14.8658 17.8316 14.8486 17.8427 14.8314V12.7236H12.8927C12.9546 14.1219 12.8927 27.6251 12.8927 27.6251H17.8427Z" fill="#1A2250"/>
</svg>
