<svg width="42" height="42" viewBox="0 0 42 42" fill="none" xmlns="http://www.w3.org/2000/svg">
<path d="M21 2.625C22.3924 2.625 23.7277 3.17812 24.7123 4.16269C25.6969 5.14726 26.25 6.48261 26.25 7.875V18.375H15.75V7.875C15.75 6.48261 16.3031 5.14726 17.2877 4.16269C18.2723 3.17812 19.6076 2.625 21 2.625ZM28.875 18.375V7.875C28.875 5.78642 28.0453 3.78338 26.5685 2.30653C25.0916 0.829685 23.0886 0 21 0C18.9114 0 16.9084 0.829685 15.4315 2.30653C13.9547 3.78338 13.125 5.78642 13.125 7.875V18.375C11.7326 18.375 10.3973 18.9281 9.41269 19.9127C8.42812 20.8973 7.875 22.2326 7.875 23.625V36.75C7.875 38.1424 8.42812 39.4777 9.41269 40.4623C10.3973 41.4469 11.7326 42 13.125 42H28.875C30.2674 42 31.6027 41.4469 32.5873 40.4623C33.5719 39.4777 34.125 38.1424 34.125 36.75V23.625C34.125 22.2326 33.5719 20.8973 32.5873 19.9127C31.6027 18.9281 30.2674 18.375 28.875 18.375Z" fill="#FBBE3D"/>
</svg>
