<svg width="566" height="155" viewBox="0 0 566 155" fill="none" xmlns="http://www.w3.org/2000/svg">
<path d="M8.862 51V50.392L12.016 48.834L12.814 28.086L9.508 26.528V25.92H17.944L26.038 44.692L34.094 25.92H42.188V26.528L38.958 27.82L39.604 48.834L42.378 50.392V51H32.004V50.392L34.968 48.872L34.588 30.556L25.772 51.19H23.796L14.98 30.746L14.486 48.872L17.716 50.392V51H8.862ZM59.4958 51.38C57.4185 51.38 55.5818 51.0253 53.9858 50.316C52.3898 49.6067 51.1358 48.4667 50.2238 46.896C49.3118 45.3253 48.8558 43.248 48.8558 40.664V28.086L45.6638 26.528V25.92H56.7978V26.528L53.6438 28.086V40.436C53.6438 42.5133 53.9731 44.1727 54.6318 45.414C55.2905 46.63 56.1645 47.504 57.2538 48.036C58.3685 48.5427 59.6098 48.796 60.9778 48.796C62.0925 48.796 63.1185 48.568 64.0558 48.112C65.0185 47.6307 65.7911 46.8833 66.3738 45.87C66.9565 44.8313 67.2478 43.4633 67.2478 41.766V28.01L63.5998 26.528V25.92H73.0618V26.528L69.9078 28.048V40.664C69.9078 43.248 69.4645 45.3253 68.5778 46.896C67.6911 48.4667 66.4625 49.6067 64.8918 50.316C63.3211 51.0253 61.5225 51.38 59.4958 51.38ZM84.6963 51.38C83.075 51.38 81.6563 51.228 80.4403 50.924C79.2497 50.5947 78.059 50.126 76.8683 49.518L76.4883 43.172H77.1723L79.4903 47.542C81.061 48.834 82.7077 49.48 84.4303 49.48C85.849 49.48 86.989 49.138 87.8503 48.454C88.7117 47.7447 89.1423 46.744 89.1423 45.452C89.1423 44.4893 88.9143 43.7167 88.4583 43.134C88.0277 42.526 87.3563 41.9813 86.4443 41.5C85.5323 40.9933 84.3417 40.4107 82.8723 39.752C81.099 38.8907 79.731 37.966 78.7683 36.978C77.8057 35.9647 77.3243 34.6093 77.3243 32.912C77.3243 31.9493 77.565 31.0247 78.0463 30.138C78.5277 29.2513 79.161 28.466 79.9463 27.782C80.757 27.098 81.6563 26.5533 82.6443 26.148C83.6577 25.7427 84.6963 25.54 85.7603 25.54C87.027 25.54 88.205 25.692 89.2943 25.996C90.409 26.2747 91.473 26.68 92.4863 27.212L92.8663 33.292H92.2203L89.9023 29.112C89.1677 28.5547 88.4837 28.1367 87.8503 27.858C87.217 27.5793 86.495 27.44 85.6843 27.44C84.6203 27.44 83.7337 27.7947 83.0243 28.504C82.3403 29.2133 81.9983 30.1127 81.9983 31.202C81.9983 32.342 82.3783 33.2667 83.1383 33.976C83.8983 34.66 85.165 35.42 86.9383 36.256C88.4837 36.9653 89.7503 37.662 90.7383 38.346C91.7263 39.03 92.461 39.8027 92.9423 40.664C93.4237 41.5253 93.6643 42.5893 93.6643 43.856C93.6643 45.072 93.3983 46.1487 92.8663 47.086C92.3597 47.998 91.663 48.7833 90.7763 49.442C89.915 50.0753 88.9523 50.5567 87.8883 50.886C86.8243 51.2153 85.7603 51.38 84.6963 51.38ZM95.5994 51V50.392L97.9554 49.1L107.797 25.73H110.457L120.185 49.024L122.769 50.392V51H111.825V50.392L115.131 49.062L112.433 42.45H103.313L100.653 49.062L103.807 50.392V51H95.5994ZM104.187 40.36H111.559L107.873 31.278L104.187 40.36ZM124.961 51V50.392L128.115 48.834V28.124L124.999 26.528V25.92H131.535L146.203 43.248V28.01L142.099 26.528V25.92H151.979V26.528L148.863 28.048V51.19H146.887L130.775 32.266V48.872L134.917 50.392V51H124.961ZM153.204 51V50.392L155.56 49.1L165.402 25.73H168.062L177.79 49.024L180.374 50.392V51H169.43V50.392L172.736 49.062L170.038 42.45H160.918L158.258 49.062L161.412 50.392V51H153.204ZM161.792 40.36H169.164L165.478 31.278L161.792 40.36ZM186.168 51V50.392L190.12 48.834V28.01H184.382L181.532 33.976H180.924V25.92H204.104V33.976H203.496L200.646 28.01H194.908V48.834L198.822 50.392V51H186.168ZM207.047 51V50.392L210.239 48.834V28.086L207.047 26.528V25.92H217.991V26.528L214.989 28.086V37.016H226.503V28.086L223.501 26.528V25.92H234.407V26.528L231.291 28.086V48.834L234.407 50.392V51H223.501V50.392L226.503 48.834V39.106H214.989V48.834L217.991 50.392V51H207.047ZM237.986 51V50.392L241.14 48.834V28.086L237.986 26.528V25.92H249.082V26.528L245.928 28.086V48.834L249.082 50.392V51H237.986ZM270.145 51.19L262.963 27.972L260.075 26.528V25.92H271.095V26.528L267.903 27.972L272.425 43.324H272.577L279.189 25.73H281.089L287.739 43.324H287.929L292.451 27.972L289.221 26.528V25.92H297.733V26.528L295.187 27.858L287.891 51.19H286.029L279.189 33.596H278.961L271.969 51.19H270.145ZM299.618 51V50.392L302.81 48.834V28.086L299.618 26.528V25.92H311.322C313.982 25.92 316.072 26.4773 317.592 27.592C319.137 28.6813 319.91 30.1887 319.91 32.114C319.91 33.5327 319.429 34.774 318.466 35.838C317.529 36.8767 316.287 37.6873 314.742 38.27L321.848 48.948L324.508 50.392V51H317.402L310.22 39.41H307.56V48.796L310.41 50.392V51H299.618ZM309.498 28.01H307.56V37.472H309.726C311.297 37.472 312.563 37.0287 313.526 36.142C314.514 35.2553 315.008 34.1027 315.008 32.684C315.008 31.2147 314.527 30.0747 313.564 29.264C312.601 28.428 311.246 28.01 309.498 28.01ZM325.808 51V50.392L328.962 48.834V28.086L325.808 26.528V25.92H336.904V26.528L333.75 28.086V48.834L336.904 50.392V51H325.808ZM345.237 51V50.392L349.189 48.834V28.01H343.451L340.601 33.976H339.993V25.92H363.173V33.976H362.565L359.715 28.01H353.977V48.834L357.891 50.392V51H345.237ZM366.115 51V50.392L369.307 48.834V28.086L366.115 26.528V25.92H385.989V32.494H385.381L382.759 28.01H374.057V37.016H380.175L382.227 33.786H382.835V42.26H382.227L380.175 39.106H374.057V48.91H383.709L386.445 43.59H387.053V51H366.115ZM399.173 51.38C397.552 51.38 396.133 51.228 394.917 50.924C393.726 50.5947 392.536 50.126 391.345 49.518L390.965 43.172H391.649L393.967 47.542C395.538 48.834 397.184 49.48 398.907 49.48C400.326 49.48 401.466 49.138 402.327 48.454C403.188 47.7447 403.619 46.744 403.619 45.452C403.619 44.4893 403.391 43.7167 402.935 43.134C402.504 42.526 401.833 41.9813 400.921 41.5C400.009 40.9933 398.818 40.4107 397.349 39.752C395.576 38.8907 394.208 37.966 393.245 36.978C392.282 35.9647 391.801 34.6093 391.801 32.912C391.801 31.9493 392.042 31.0247 392.523 30.138C393.004 29.2513 393.638 28.466 394.423 27.782C395.234 27.098 396.133 26.5533 397.121 26.148C398.134 25.7427 399.173 25.54 400.237 25.54C401.504 25.54 402.682 25.692 403.771 25.996C404.886 26.2747 405.95 26.68 406.963 27.212L407.343 33.292H406.697L404.379 29.112C403.644 28.5547 402.96 28.1367 402.327 27.858C401.694 27.5793 400.972 27.44 400.161 27.44C399.097 27.44 398.21 27.7947 397.501 28.504C396.817 29.2133 396.475 30.1127 396.475 31.202C396.475 32.342 396.855 33.2667 397.615 33.976C398.375 34.66 399.642 35.42 401.415 36.256C402.96 36.9653 404.227 37.662 405.215 38.346C406.203 39.03 406.938 39.8027 407.419 40.664C407.9 41.5253 408.141 42.5893 408.141 43.856C408.141 45.072 407.875 46.1487 407.343 47.086C406.836 47.998 406.14 48.7833 405.253 49.442C404.392 50.0753 403.429 50.5567 402.365 50.886C401.301 51.2153 400.237 51.38 399.173 51.38ZM420.289 51V50.392L423.443 48.834L424.241 28.086L420.935 26.528V25.92H429.371L437.465 44.692L445.521 25.92H453.615V26.528L450.385 27.82L451.031 48.834L453.805 50.392V51H443.431V50.392L446.395 48.872L446.015 30.556L437.199 51.19H435.223L426.407 30.746L425.913 48.872L429.143 50.392V51H420.289ZM457.091 51V50.392L460.283 48.834V28.086L457.091 26.528V25.92H476.965V32.494H476.357L473.735 28.01H465.033V37.016H471.151L473.203 33.786H473.811V42.26H473.203L471.151 39.106H465.033V48.91H474.685L477.421 43.59H478.029V51H457.091ZM481.941 51V50.392L485.133 48.834V28.086L481.941 26.528V25.92H494.177C497.09 25.92 499.56 26.414 501.587 27.402C503.639 28.39 505.197 29.7453 506.261 31.468C507.35 33.1907 507.895 35.1413 507.895 37.32C507.895 39.296 507.54 41.12 506.831 42.792C506.147 44.464 505.172 45.908 503.905 47.124C502.664 48.34 501.182 49.29 499.459 49.974C497.762 50.658 495.912 51 493.911 51H481.941ZM492.885 28.01H489.883V48.91H493.455C495.456 48.91 497.154 48.492 498.547 47.656C499.966 46.7947 501.042 45.5913 501.777 44.046C502.537 42.4753 502.917 40.626 502.917 38.498C502.917 35.306 502.056 32.76 500.333 30.86C498.636 28.96 496.153 28.01 492.885 28.01ZM511.582 51V50.392L514.736 48.834V28.086L511.582 26.528V25.92H522.678V26.528L519.524 28.086V48.834L522.678 50.392V51H511.582ZM525.197 51V50.392L527.553 49.1L537.395 25.73H540.055L549.783 49.024L552.367 50.392V51H541.423V50.392L544.729 49.062L542.031 42.45H532.911L530.251 49.062L533.405 50.392V51H525.197ZM533.785 40.36H541.157L537.471 31.278L533.785 40.36Z" fill="#1A2250"/>
<path d="M2 2H564" stroke="#FBBE3D" stroke-width="4" stroke-linecap="round"/>
<path d="M2 78.051H564" stroke="#FBBE3D" stroke-width="4" stroke-linecap="round"/>
<path d="M58.3 118V117.68L59.9 116.88V105.92L58.3 105.12V104.8H63.5C65.0733 104.8 66.3333 105.087 67.28 105.66C68.24 106.233 68.72 107.14 68.72 108.38C68.72 109.113 68.4667 109.767 67.96 110.34C67.4667 110.9 66.7867 111.347 65.92 111.68C65.0667 112.013 64.1 112.18 63.02 112.18H61.7V116.88L63.5 117.68V118H58.3ZM61.7 105.9V111.08H63.4C64.4533 111.08 65.28 110.847 65.88 110.38C66.48 109.9 66.78 109.287 66.78 108.54C66.78 107.607 66.4733 106.933 65.86 106.52C65.26 106.107 64.3933 105.9 63.26 105.9H61.7ZM70.7539 118V117.68L72.3539 116.88V105.92L70.7539 105.12V104.8H75.9139C77.3139 104.8 78.4139 105.093 79.2139 105.68C80.0272 106.253 80.4339 107.047 80.4339 108.06C80.4339 108.807 80.1806 109.48 79.6739 110.08C79.1672 110.667 78.4939 111.113 77.6539 111.42L81.4539 116.96L82.7739 117.68V118H79.8939L76.0139 111.94H74.1539V116.86L75.6539 117.68V118H70.7539ZM75.4539 105.9H74.1539V110.84H75.5739C76.4139 110.84 77.1072 110.607 77.6539 110.14C78.2139 109.66 78.4939 109.053 78.4939 108.32C78.4939 107.573 78.2206 106.987 77.6739 106.56C77.1272 106.12 76.3872 105.9 75.4539 105.9ZM90.4366 118.2C89.4766 118.2 88.5899 118.033 87.7766 117.7C86.9766 117.353 86.2766 116.88 85.6766 116.28C85.0766 115.667 84.6099 114.947 84.2766 114.12C83.9432 113.293 83.7766 112.387 83.7766 111.4C83.7766 110.413 83.9432 109.507 84.2766 108.68C84.6099 107.853 85.0766 107.14 85.6766 106.54C86.2766 105.927 86.9766 105.453 87.7766 105.12C88.5899 104.773 89.4766 104.6 90.4366 104.6C91.3966 104.6 92.2832 104.773 93.0966 105.12C93.9099 105.453 94.6166 105.927 95.2166 106.54C95.8166 107.14 96.2832 107.853 96.6166 108.68C96.9499 109.507 97.1166 110.413 97.1166 111.4C97.1166 112.387 96.9499 113.293 96.6166 114.12C96.2832 114.947 95.8166 115.667 95.2166 116.28C94.6166 116.88 93.9099 117.353 93.0966 117.7C92.2832 118.033 91.3966 118.2 90.4366 118.2ZM90.8566 117.2C91.7099 117.2 92.4566 116.987 93.0966 116.56C93.7499 116.133 94.2566 115.533 94.6166 114.76C94.9899 113.987 95.1766 113.073 95.1766 112.02C95.1766 110.727 94.9499 109.6 94.4966 108.64C94.0432 107.667 93.4299 106.913 92.6566 106.38C91.8966 105.847 91.0432 105.58 90.0966 105.58C89.2432 105.58 88.4832 105.793 87.8166 106.22C87.1632 106.633 86.6499 107.227 86.2766 108C85.9032 108.773 85.7166 109.687 85.7166 110.74C85.7166 112.033 85.9432 113.167 86.3966 114.14C86.8632 115.113 87.4832 115.867 88.2566 116.4C89.0299 116.933 89.8966 117.2 90.8566 117.2ZM106.465 118.2C105.505 118.2 104.618 118.033 103.805 117.7C103.005 117.353 102.305 116.88 101.705 116.28C101.105 115.667 100.638 114.947 100.305 114.12C99.9714 113.293 99.8047 112.387 99.8047 111.4C99.8047 110.413 99.9714 109.507 100.305 108.68C100.638 107.853 101.105 107.14 101.705 106.54C102.305 105.927 103.005 105.453 103.805 105.12C104.618 104.773 105.505 104.6 106.465 104.6C107.425 104.6 108.311 104.773 109.125 105.12C109.938 105.453 110.645 105.927 111.245 106.54C111.845 107.14 112.311 107.853 112.645 108.68C112.978 109.507 113.145 110.413 113.145 111.4C113.145 112.387 112.978 113.293 112.645 114.12C112.311 114.947 111.845 115.667 111.245 116.28C110.645 116.88 109.938 117.353 109.125 117.7C108.311 118.033 107.425 118.2 106.465 118.2ZM106.885 117.2C107.738 117.2 108.485 116.987 109.125 116.56C109.778 116.133 110.285 115.533 110.645 114.76C111.018 113.987 111.205 113.073 111.205 112.02C111.205 110.727 110.978 109.6 110.525 108.64C110.071 107.667 109.458 106.913 108.685 106.38C107.925 105.847 107.071 105.58 106.125 105.58C105.271 105.58 104.511 105.793 103.845 106.22C103.191 106.633 102.678 107.227 102.305 108C101.931 108.773 101.745 109.687 101.745 110.74C101.745 112.033 101.971 113.167 102.425 114.14C102.891 115.113 103.511 115.867 104.285 116.4C105.058 116.933 105.925 117.2 106.885 117.2ZM115.537 118V117.68L117.137 116.88V105.92L115.537 105.12V104.8H125.117V108.24H124.797L123.557 105.9H118.937V110.64H122.137L123.137 108.98H123.457V113.36H123.137L122.137 111.74H118.937V116.88L120.737 117.68V118H115.537ZM127.523 118V117.68L129.123 116.88V105.92L127.523 105.12V104.8H132.683C134.083 104.8 135.183 105.093 135.983 105.68C136.796 106.253 137.203 107.047 137.203 108.06C137.203 108.807 136.949 109.48 136.443 110.08C135.936 110.667 135.263 111.113 134.423 111.42L138.223 116.96L139.543 117.68V118H136.663L132.783 111.94H130.923V116.86L132.423 117.68V118H127.523ZM132.223 105.9H130.923V110.84H132.343C133.183 110.84 133.876 110.607 134.423 110.14C134.983 109.66 135.263 109.053 135.263 108.32C135.263 107.573 134.989 106.987 134.443 106.56C133.896 106.12 133.156 105.9 132.223 105.9ZM140.445 118V117.68L142.045 116.88V105.92L140.445 105.12V104.8H150.225V108.24H149.905L148.665 105.9H143.845V110.64H147.245L148.245 108.98H148.565V113.36H148.245L147.245 111.74H143.845V116.9H149.225L150.465 114.36H150.785V118H140.445ZM152.552 118V117.68L153.832 117.02L158.952 104.7H159.852L164.892 116.96L166.232 117.68V118H161.272V117.68L163.032 117L161.532 113.3H156.672L155.192 117L156.872 117.68V118H152.552ZM157.132 112.2H161.092L159.112 107.28L157.132 112.2ZM167.892 118V117.68L169.492 116.88V105.92L167.892 105.12V104.8H173.752C175.219 104.8 176.472 105.06 177.512 105.58C178.552 106.1 179.339 106.813 179.872 107.72C180.419 108.627 180.692 109.653 180.692 110.8C180.692 111.84 180.512 112.8 180.152 113.68C179.806 114.56 179.312 115.32 178.672 115.96C178.032 116.6 177.279 117.1 176.412 117.46C175.559 117.82 174.626 118 173.612 118H167.892ZM173.292 105.9H171.292V116.9H173.592C174.659 116.9 175.579 116.68 176.352 116.24C177.139 115.787 177.739 115.153 178.152 114.34C178.579 113.513 178.792 112.54 178.792 111.42C178.792 110.313 178.579 109.347 178.152 108.52C177.726 107.68 177.099 107.033 176.272 106.58C175.459 106.127 174.466 105.9 173.292 105.9ZM183.2 118V117.68L184.8 116.88V105.92L183.2 105.12V104.8H188.2V105.12L186.6 105.92V116.88L188.2 117.68V118H183.2ZM190.493 118V117.68L192.093 116.88V105.96L190.513 105.12V104.8H193.453L201.093 114.4V105.88L199.093 105.12V104.8H204.073V105.12L202.493 105.9V118.1H201.753L193.493 107.68V116.9L195.493 117.68V118H190.493ZM213.03 118.2C211.75 118.2 210.603 117.92 209.59 117.36C208.59 116.8 207.803 116.04 207.23 115.08C206.656 114.107 206.37 113 206.37 111.76C206.37 110.733 206.55 109.787 206.91 108.92C207.283 108.053 207.796 107.3 208.45 106.66C209.116 106.007 209.876 105.5 210.73 105.14C211.583 104.78 212.503 104.6 213.49 104.6C214.183 104.6 214.776 104.64 215.27 104.72C215.763 104.8 216.203 104.913 216.59 105.06C216.976 105.207 217.363 105.373 217.75 105.56L217.85 108.86H217.53L216.23 106.62C215.67 106.233 215.19 105.967 214.79 105.82C214.403 105.673 213.956 105.6 213.45 105.6C212.423 105.6 211.51 105.827 210.71 106.28C209.91 106.72 209.283 107.333 208.83 108.12C208.376 108.893 208.15 109.773 208.15 110.76C208.15 112.093 208.39 113.227 208.87 114.16C209.363 115.093 210.023 115.807 210.85 116.3C211.676 116.793 212.596 117.04 213.61 117.04C214.05 117.04 214.47 117.013 214.87 116.96C215.283 116.907 215.71 116.793 216.15 116.62V113.32L214.37 112.52V112.2H219.33V112.52L217.95 113.38V116.52C217.336 117.027 216.576 117.433 215.67 117.74C214.776 118.047 213.896 118.2 213.03 118.2ZM222.521 118.1C222.188 118.1 221.901 117.98 221.661 117.74C221.421 117.5 221.301 117.213 221.301 116.88C221.301 116.547 221.421 116.26 221.661 116.02C221.901 115.78 222.188 115.66 222.521 115.66C222.854 115.66 223.141 115.78 223.381 116.02C223.621 116.26 223.741 116.547 223.741 116.88C223.741 117.213 223.621 117.5 223.381 117.74C223.141 117.98 222.854 118.1 222.521 118.1ZM226.021 118V117.68L227.621 116.88V105.92L226.021 105.12V104.8H235.801V108.24H235.481L234.241 105.9H229.421V110.64H232.821L233.821 108.98H234.141V113.36H233.821L232.821 111.74H229.421V116.9H234.801L236.041 114.36H236.361V118H226.021ZM238.768 118V117.68L240.368 116.88V105.92L238.768 105.12V104.8H244.628C246.095 104.8 247.348 105.06 248.388 105.58C249.428 106.1 250.215 106.813 250.748 107.72C251.295 108.627 251.568 109.653 251.568 110.8C251.568 111.84 251.388 112.8 251.028 113.68C250.681 114.56 250.188 115.32 249.548 115.96C248.908 116.6 248.155 117.1 247.288 117.46C246.435 117.82 245.501 118 244.488 118H238.768ZM244.168 105.9H242.168V116.9H244.468C245.535 116.9 246.455 116.68 247.228 116.24C248.015 115.787 248.615 115.153 249.028 114.34C249.455 113.513 249.668 112.54 249.668 111.42C249.668 110.313 249.455 109.347 249.028 108.52C248.601 107.68 247.975 107.033 247.148 106.58C246.335 106.127 245.341 105.9 244.168 105.9ZM254.076 118V117.68L255.676 116.88V105.92L254.076 105.12V104.8H259.076V105.12L257.476 105.92V116.88L259.076 117.68V118H254.076ZM264.009 118V117.68L266.009 116.88V105.9H262.749L261.389 108.84H261.069V104.8H272.749V108.84H272.429L271.069 105.9H267.809V116.88L269.809 117.68V118H264.009ZM274.745 118V117.68L276.345 116.88V105.92L274.745 105.12V104.8H279.745V105.12L278.145 105.92V116.88L279.745 117.68V118H274.745ZM282.038 118V117.68L283.638 116.88V105.96L282.058 105.12V104.8H284.998L292.638 114.4V105.88L290.638 105.12V104.8H295.618V105.12L294.038 105.9V118.1H293.298L285.038 107.68V116.9L287.038 117.68V118H282.038ZM304.575 118.2C303.295 118.2 302.148 117.92 301.135 117.36C300.135 116.8 299.348 116.04 298.775 115.08C298.202 114.107 297.915 113 297.915 111.76C297.915 110.733 298.095 109.787 298.455 108.92C298.828 108.053 299.342 107.3 299.995 106.66C300.662 106.007 301.422 105.5 302.275 105.14C303.128 104.78 304.048 104.6 305.035 104.6C305.728 104.6 306.322 104.64 306.815 104.72C307.308 104.8 307.748 104.913 308.135 105.06C308.522 105.207 308.908 105.373 309.295 105.56L309.395 108.86H309.075L307.775 106.62C307.215 106.233 306.735 105.967 306.335 105.82C305.948 105.673 305.502 105.6 304.995 105.6C303.968 105.6 303.055 105.827 302.255 106.28C301.455 106.72 300.828 107.333 300.375 108.12C299.922 108.893 299.695 109.773 299.695 110.76C299.695 112.093 299.935 113.227 300.415 114.16C300.908 115.093 301.568 115.807 302.395 116.3C303.222 116.793 304.142 117.04 305.155 117.04C305.595 117.04 306.015 117.013 306.415 116.96C306.828 116.907 307.255 116.793 307.695 116.62V113.32L305.915 112.52V112.2H310.875V112.52L309.495 113.38V116.52C308.882 117.027 308.122 117.433 307.215 117.74C306.322 118.047 305.442 118.2 304.575 118.2ZM314.066 118.1C313.733 118.1 313.446 117.98 313.206 117.74C312.966 117.5 312.846 117.213 312.846 116.88C312.846 116.547 312.966 116.26 313.206 116.02C313.446 115.78 313.733 115.66 314.066 115.66C314.4 115.66 314.686 115.78 314.926 116.02C315.166 116.26 315.286 116.547 315.286 116.88C315.286 117.213 315.166 117.5 314.926 117.74C314.686 117.98 314.4 118.1 314.066 118.1ZM317.566 118V117.68L319.166 116.88V105.92L317.566 105.12V104.8H322.626C323.506 104.8 324.293 104.913 324.986 105.14C325.693 105.353 326.246 105.68 326.646 106.12C327.046 106.547 327.246 107.093 327.246 107.76C327.246 108.44 327.02 109.067 326.566 109.64C326.113 110.2 325.46 110.6 324.606 110.84C325.793 111 326.72 111.373 327.386 111.96C328.053 112.533 328.386 113.267 328.386 114.16C328.386 114.893 328.153 115.553 327.686 116.14C327.233 116.713 326.606 117.167 325.806 117.5C325.006 117.833 324.1 118 323.086 118H317.566ZM322.166 105.9H320.966V110.64H322.286C323.233 110.64 323.973 110.44 324.506 110.04C325.04 109.627 325.306 109.053 325.306 108.32C325.306 106.707 324.26 105.9 322.166 105.9ZM322.926 111.74H320.966V116.9H323.066C324.12 116.9 324.946 116.66 325.546 116.18C326.146 115.7 326.446 115.08 326.446 114.32C326.446 113.413 326.14 112.76 325.526 112.36C324.926 111.947 324.06 111.74 322.926 111.74ZM337.19 118.2C336.23 118.2 335.344 118.033 334.53 117.7C333.73 117.353 333.03 116.88 332.43 116.28C331.83 115.667 331.364 114.947 331.03 114.12C330.697 113.293 330.53 112.387 330.53 111.4C330.53 110.413 330.697 109.507 331.03 108.68C331.364 107.853 331.83 107.14 332.43 106.54C333.03 105.927 333.73 105.453 334.53 105.12C335.344 104.773 336.23 104.6 337.19 104.6C338.15 104.6 339.037 104.773 339.85 105.12C340.664 105.453 341.37 105.927 341.97 106.54C342.57 107.14 343.037 107.853 343.37 108.68C343.704 109.507 343.87 110.413 343.87 111.4C343.87 112.387 343.704 113.293 343.37 114.12C343.037 114.947 342.57 115.667 341.97 116.28C341.37 116.88 340.664 117.353 339.85 117.7C339.037 118.033 338.15 118.2 337.19 118.2ZM337.61 117.2C338.464 117.2 339.21 116.987 339.85 116.56C340.504 116.133 341.01 115.533 341.37 114.76C341.744 113.987 341.93 113.073 341.93 112.02C341.93 110.727 341.704 109.6 341.25 108.64C340.797 107.667 340.184 106.913 339.41 106.38C338.65 105.847 337.797 105.58 336.85 105.58C335.997 105.58 335.237 105.793 334.57 106.22C333.917 106.633 333.404 107.227 333.03 108C332.657 108.773 332.47 109.687 332.47 110.74C332.47 112.033 332.697 113.167 333.15 114.14C333.617 115.113 334.237 115.867 335.01 116.4C335.784 116.933 336.65 117.2 337.61 117.2ZM353.219 118.2C352.259 118.2 351.372 118.033 350.559 117.7C349.759 117.353 349.059 116.88 348.459 116.28C347.859 115.667 347.392 114.947 347.059 114.12C346.725 113.293 346.559 112.387 346.559 111.4C346.559 110.413 346.725 109.507 347.059 108.68C347.392 107.853 347.859 107.14 348.459 106.54C349.059 105.927 349.759 105.453 350.559 105.12C351.372 104.773 352.259 104.6 353.219 104.6C354.179 104.6 355.065 104.773 355.879 105.12C356.692 105.453 357.399 105.927 357.999 106.54C358.599 107.14 359.065 107.853 359.399 108.68C359.732 109.507 359.899 110.413 359.899 111.4C359.899 112.387 359.732 113.293 359.399 114.12C359.065 114.947 358.599 115.667 357.999 116.28C357.399 116.88 356.692 117.353 355.879 117.7C355.065 118.033 354.179 118.2 353.219 118.2ZM353.639 117.2C354.492 117.2 355.239 116.987 355.879 116.56C356.532 116.133 357.039 115.533 357.399 114.76C357.772 113.987 357.959 113.073 357.959 112.02C357.959 110.727 357.732 109.6 357.279 108.64C356.825 107.667 356.212 106.913 355.439 106.38C354.679 105.847 353.825 105.58 352.879 105.58C352.025 105.58 351.265 105.793 350.599 106.22C349.945 106.633 349.432 107.227 349.059 108C348.685 108.773 348.499 109.687 348.499 110.74C348.499 112.033 348.725 113.167 349.179 114.14C349.645 115.113 350.265 115.867 351.039 116.4C351.812 116.933 352.679 117.2 353.639 117.2ZM362.291 118V117.68L363.891 116.88V105.92L362.291 105.12V104.8H367.291V105.12L365.691 105.92V116.88L367.291 117.68V118H362.291ZM365.711 111.24L371.251 105.8L369.831 105.12V104.8H374.031V105.12L372.791 105.6L367.531 110.76L373.851 117.16L375.071 117.68V118H372.191L365.711 111.24ZM380.151 118.2C379.324 118.2 378.624 118.127 378.051 117.98C377.478 117.82 376.884 117.587 376.271 117.28L376.071 114H376.391L377.371 116.12C377.851 116.52 378.318 116.813 378.771 117C379.224 117.173 379.684 117.26 380.151 117.26C380.938 117.26 381.551 117.053 381.991 116.64C382.444 116.227 382.671 115.667 382.671 114.96C382.671 114.373 382.538 113.913 382.271 113.58C382.018 113.247 381.644 112.953 381.151 112.7C380.671 112.433 380.098 112.133 379.431 111.8C378.804 111.48 378.271 111.167 377.831 110.86C377.391 110.553 377.058 110.2 376.831 109.8C376.604 109.387 376.491 108.873 376.491 108.26C376.491 107.807 376.598 107.367 376.811 106.94C377.038 106.5 377.338 106.107 377.711 105.76C378.098 105.4 378.524 105.12 378.991 104.92C379.471 104.707 379.964 104.6 380.471 104.6C381.084 104.6 381.651 104.673 382.171 104.82C382.691 104.967 383.224 105.173 383.771 105.44L383.971 108.64H383.651L382.731 106.54C382.264 106.193 381.858 105.947 381.511 105.8C381.164 105.64 380.764 105.56 380.311 105.56C379.724 105.56 379.238 105.76 378.851 106.16C378.478 106.56 378.291 107.053 378.291 107.64C378.291 108.32 378.498 108.853 378.911 109.24C379.324 109.613 379.971 110.013 380.851 110.44C381.664 110.84 382.331 111.213 382.851 111.56C383.371 111.893 383.758 112.28 384.011 112.72C384.264 113.16 384.391 113.72 384.391 114.4C384.391 115.027 384.258 115.58 383.991 116.06C383.724 116.527 383.378 116.92 382.951 117.24C382.538 117.56 382.078 117.8 381.571 117.96C381.078 118.12 380.604 118.2 380.151 118.2ZM387.501 118.1C387.167 118.1 386.881 117.98 386.641 117.74C386.401 117.5 386.281 117.213 386.281 116.88C386.281 116.547 386.401 116.26 386.641 116.02C386.881 115.78 387.167 115.66 387.501 115.66C387.834 115.66 388.121 115.78 388.361 116.02C388.601 116.26 388.721 116.547 388.721 116.88C388.721 117.213 388.601 117.5 388.361 117.74C388.121 117.98 387.834 118.1 387.501 118.1ZM391.001 118V117.68L392.601 116.88V105.92L391.001 105.12V104.8H396.861C398.327 104.8 399.581 105.06 400.621 105.58C401.661 106.1 402.447 106.813 402.981 107.72C403.527 108.627 403.801 109.653 403.801 110.8C403.801 111.84 403.621 112.8 403.261 113.68C402.914 114.56 402.421 115.32 401.781 115.96C401.141 116.6 400.387 117.1 399.521 117.46C398.667 117.82 397.734 118 396.721 118H391.001ZM396.401 105.9H394.401V116.9H396.701C397.767 116.9 398.687 116.68 399.461 116.24C400.247 115.787 400.847 115.153 401.261 114.34C401.687 113.513 401.901 112.54 401.901 111.42C401.901 110.313 401.687 109.347 401.261 108.52C400.834 107.68 400.207 107.033 399.381 106.58C398.567 106.127 397.574 105.9 396.401 105.9ZM406.209 118V117.68L407.809 116.88V105.92L406.209 105.12V104.8H415.989V108.24H415.669L414.429 105.9H409.609V110.64H413.009L414.009 108.98H414.329V113.36H414.009L413.009 111.74H409.609V116.9H414.989L416.229 114.36H416.549V118H406.209ZM422.935 118.2C422.109 118.2 421.409 118.127 420.835 117.98C420.262 117.82 419.669 117.587 419.055 117.28L418.855 114H419.175L420.155 116.12C420.635 116.52 421.102 116.813 421.555 117C422.009 117.173 422.469 117.26 422.935 117.26C423.722 117.26 424.335 117.053 424.775 116.64C425.229 116.227 425.455 115.667 425.455 114.96C425.455 114.373 425.322 113.913 425.055 113.58C424.802 113.247 424.429 112.953 423.935 112.7C423.455 112.433 422.882 112.133 422.215 111.8C421.589 111.48 421.055 111.167 420.615 110.86C420.175 110.553 419.842 110.2 419.615 109.8C419.389 109.387 419.275 108.873 419.275 108.26C419.275 107.807 419.382 107.367 419.595 106.94C419.822 106.5 420.122 106.107 420.495 105.76C420.882 105.4 421.309 105.12 421.775 104.92C422.255 104.707 422.749 104.6 423.255 104.6C423.869 104.6 424.435 104.673 424.955 104.82C425.475 104.967 426.009 105.173 426.555 105.44L426.755 108.64H426.435L425.515 106.54C425.049 106.193 424.642 105.947 424.295 105.8C423.949 105.64 423.549 105.56 423.095 105.56C422.509 105.56 422.022 105.76 421.635 106.16C421.262 106.56 421.075 107.053 421.075 107.64C421.075 108.32 421.282 108.853 421.695 109.24C422.109 109.613 422.755 110.013 423.635 110.44C424.449 110.84 425.115 111.213 425.635 111.56C426.155 111.893 426.542 112.28 426.795 112.72C427.049 113.16 427.175 113.72 427.175 114.4C427.175 115.027 427.042 115.58 426.775 116.06C426.509 116.527 426.162 116.92 425.735 117.24C425.322 117.56 424.862 117.8 424.355 117.96C423.862 118.12 423.389 118.2 422.935 118.2ZM429.38 118V117.68L430.98 116.88V105.92L429.38 105.12V104.8H434.38V105.12L432.78 105.92V116.88L434.38 117.68V118H429.38ZM443.533 118.2C442.253 118.2 441.107 117.92 440.093 117.36C439.093 116.8 438.307 116.04 437.733 115.08C437.16 114.107 436.873 113 436.873 111.76C436.873 110.733 437.053 109.787 437.413 108.92C437.787 108.053 438.3 107.3 438.953 106.66C439.62 106.007 440.38 105.5 441.233 105.14C442.087 104.78 443.007 104.6 443.993 104.6C444.687 104.6 445.28 104.64 445.773 104.72C446.267 104.8 446.707 104.913 447.093 105.06C447.48 105.207 447.867 105.373 448.253 105.56L448.353 108.86H448.033L446.733 106.62C446.173 106.233 445.693 105.967 445.293 105.82C444.907 105.673 444.46 105.6 443.953 105.6C442.927 105.6 442.013 105.827 441.213 106.28C440.413 106.72 439.787 107.333 439.333 108.12C438.88 108.893 438.653 109.773 438.653 110.76C438.653 112.093 438.893 113.227 439.373 114.16C439.867 115.093 440.527 115.807 441.353 116.3C442.18 116.793 443.1 117.04 444.113 117.04C444.553 117.04 444.973 117.013 445.373 116.96C445.787 116.907 446.213 116.793 446.653 116.62V113.32L444.873 112.52V112.2H449.833V112.52L448.453 113.38V116.52C447.84 117.027 447.08 117.433 446.173 117.74C445.28 118.047 444.4 118.2 443.533 118.2ZM451.725 118V117.68L453.325 116.88V105.96L451.745 105.12V104.8H454.685L462.325 114.4V105.88L460.325 105.12V104.8H465.305V105.12L463.725 105.9V118.1H462.985L454.725 107.68V116.9L456.725 117.68V118H451.725Z" fill="#1A2250"/>
</svg>
