<svg width="134" height="22" viewBox="0 0 134 22" fill="none" xmlns="http://www.w3.org/2000/svg">
<path d="M10.3423 0.757119L7.55036 6.46977L1.23638 7.37177C0.119625 7.54358 -0.309898 8.91805 0.506195 9.73414L5.01618 14.1582L3.94238 20.3863C3.77057 21.5031 4.97323 22.3621 5.96113 21.8467L11.5879 18.883L17.1717 21.8467C18.1596 22.3621 19.3622 21.5031 19.1904 20.3863L18.1166 14.1582L22.6266 9.73414C23.4427 8.91805 23.0132 7.54358 21.8964 7.37177L15.6254 6.46977L12.7905 0.757119C12.3181 -0.230783 10.8577 -0.273735 10.3423 0.757119Z" fill="#FBBE3D"/>
<path d="M37.8921 0.757119L35.1002 6.46977L28.7862 7.37177C27.6694 7.54358 27.2399 8.91805 28.056 9.73414L32.566 14.1582L31.4922 20.3863C31.3204 21.5031 32.523 22.3621 33.5109 21.8467L39.1377 18.883L44.7215 21.8467C45.7094 22.3621 46.912 21.5031 46.7402 20.3863L45.6664 14.1582L50.1764 9.73414C50.9925 8.91805 50.563 7.54358 49.4462 7.37177L43.1752 6.46977L40.3403 0.757119C39.8679 -0.230783 38.4075 -0.273735 37.8921 0.757119Z" fill="#FBBE3D"/>
<path d="M65.4428 0.757119L62.651 6.46977L56.337 7.37177C55.2202 7.54358 54.7907 8.91805 55.6068 9.73414L60.1168 14.1582L59.043 20.3863C58.8712 21.5031 60.0738 22.3621 61.0617 21.8467L66.6885 18.883L72.2723 21.8467C73.2602 22.3621 74.4628 21.5031 74.291 20.3863L73.2172 14.1582L77.7272 9.73414C78.5433 8.91805 78.1138 7.54358 76.997 7.37177L70.726 6.46977L67.8911 0.757119C67.4187 -0.230783 65.9583 -0.273735 65.4428 0.757119Z" fill="#FBBE3D"/>
<path d="M92.9927 0.757119L90.2008 6.46977L83.8868 7.37177C82.77 7.54358 82.3405 8.91805 83.1566 9.73414L87.6666 14.1582L86.5928 20.3863C86.421 21.5031 87.6236 22.3621 88.6115 21.8467L94.2383 18.883L99.8221 21.8467C100.81 22.3621 102.013 21.5031 101.841 20.3863L100.767 14.1582L105.277 9.73414C106.093 8.91805 105.664 7.54358 104.547 7.37177L98.2758 6.46977L95.4409 0.757119C94.9685 -0.230783 93.5081 -0.273735 92.9927 0.757119Z" fill="#FBBE3D"/>
<path d="M120.542 0.757119L117.751 6.46977L111.437 7.37177C110.32 7.54358 109.89 8.91805 110.706 9.73414L115.216 14.1582L114.143 20.3863C113.971 21.5031 115.173 22.3621 116.161 21.8467L121.788 18.883L127.372 21.8467C128.36 22.3621 129.562 21.5031 129.391 20.3863L128.317 14.1582L132.827 9.73414C133.643 8.91805 133.213 7.54358 132.097 7.37177L125.826 6.46977L122.991 0.757119C122.518 -0.230783 121.058 -0.273735 120.542 0.757119Z" fill="#FBBE3D"/>
</svg>
