<svg width="42" height="42" viewBox="0 0 42 42" fill="none" xmlns="http://www.w3.org/2000/svg">
<g clip-path="url(#clip0_63_1244)">
<path d="M30.8222 27.1537C33.3639 23.6853 34.5024 19.385 34.0097 15.1133C33.5171 10.8415 31.4296 6.91327 28.1651 4.11447C24.9005 1.31567 20.6995 -0.147289 16.4026 0.0182785C12.1057 0.183845 8.02979 1.96573 4.99026 5.00743C1.95072 8.04914 0.17176 12.1264 0.00926746 16.4234C-0.153225 20.7204 1.31274 24.9203 4.11387 28.1829C6.91501 31.4454 10.8447 33.5301 15.1169 34.0197C19.389 34.5093 23.6884 33.3678 27.1551 30.8235H27.1524C27.2312 30.9285 27.3152 31.0282 27.4097 31.1254L37.5159 41.2316C38.0081 41.7242 38.6758 42.001 39.3722 42.0013C40.0685 42.0015 40.7364 41.7251 41.229 41.2329C41.7215 40.7407 41.9984 40.073 41.9986 39.3767C41.9989 38.6803 41.7225 38.0124 41.2303 37.5199L31.1241 27.4136C31.0302 27.3186 30.9293 27.2309 30.8222 27.1511V27.1537ZM31.4994 17.0633C31.4994 18.9592 31.126 20.8366 30.4004 22.5882C29.6749 24.3399 28.6114 25.9315 27.2708 27.2721C25.9301 28.6127 24.3386 29.6762 22.5869 30.4018C20.8353 31.1273 18.9579 31.5007 17.0619 31.5007C15.166 31.5007 13.2886 31.1273 11.5369 30.4018C9.7853 29.6762 8.19372 28.6127 6.85307 27.2721C5.51243 25.9315 4.44897 24.3399 3.72342 22.5882C2.99786 20.8366 2.62443 18.9592 2.62443 17.0633C2.62443 13.2342 4.14552 9.56195 6.85307 6.8544C9.56063 4.14684 13.2329 2.62575 17.0619 2.62575C20.891 2.62575 24.5632 4.14684 27.2708 6.8544C29.9783 9.56195 31.4994 13.2342 31.4994 17.0633Z" fill="#FBBE3D"/>
</g>
<defs>
<clipPath id="clip0_63_1244">
<rect width="42" height="42" fill="white"/>
</clipPath>
</defs>
</svg>
