<svg width="22" height="24" viewBox="0 0 22 24" fill="none" xmlns="http://www.w3.org/2000/svg">
<path d="M6.91075 22.4999C15.213 22.4999 19.7546 14.9954 19.7546 8.49894C19.7546 8.28894 19.7546 8.07594 19.7464 7.86594C20.6306 7.16767 21.3937 6.30317 22 5.31294C21.1741 5.71022 20.2988 5.97205 19.4026 6.08994C20.3466 5.4744 21.0536 4.50589 21.3923 3.36444C20.5054 3.93763 19.5346 4.34 18.5226 4.55394C17.8423 3.76348 16.9419 3.23982 15.9611 3.06408C14.9803 2.88834 13.9737 3.07032 13.0973 3.58185C12.2209 4.09337 11.5236 4.90588 11.1134 5.89353C10.7031 6.88118 10.6029 7.98884 10.8281 9.04494C9.03339 8.94677 7.27762 8.43814 5.67468 7.55206C4.07175 6.66597 2.65744 5.42221 1.5235 3.90144C0.947843 4.98607 0.772164 6.26904 1.03214 7.48984C1.29211 8.71064 1.96825 9.77774 2.92325 10.4744C2.20762 10.4479 1.50772 10.2383 0.88 9.86244V9.92994C0.881234 11.0662 1.24205 12.1671 1.90145 13.0466C2.56086 13.9261 3.4784 14.5303 4.499 14.7569C4.11161 14.8734 3.71144 14.9314 3.30963 14.9294C3.02635 14.9304 2.74365 14.9017 2.46537 14.8439C2.75383 15.822 3.3155 16.6772 4.07171 17.2897C4.82793 17.9021 5.74081 18.2412 6.6825 18.2594C5.08276 19.6301 3.10668 20.3736 1.0725 20.3699C0.714066 20.3716 0.355882 20.3491 0 20.3024C2.06458 21.7383 4.46228 22.5008 6.91075 22.4999Z" fill="white"/>
</svg>
